<svg id="art" xmlns="http://www.w3.org/2000/svg" viewBox="0 0 165.82 209.08"><defs><style>.cls-1{fill:#8f917e;}.cls-2{fill:#2d3330;}.cls-3{fill:#b7b597;}.cls-4{fill:#006866;}.cls-5{fill:#1e9395;}.cls-6{fill:#008281;}.cls-7{fill:#606356;}.cls-8{fill:#d6dbce;}.cls-9{fill:#da724b;}.cls-10{fill:#994b33;}.cls-11{fill:#00403e;}.cls-12{fill:#00504d;}.cls-13{fill:#fadd38;}.cls-14{fill:#00a29e;}.cls-15{fill:none;}.cls-16{fill:#be762d;}</style></defs><title>GWR-Superheroes-BATMAN</title><path class="cls-1" d="M275.28,176.75c-.56.84-5.11,4.83-6.3,6s-7.14,2.94-8.61,3.22-3-.42-2.87-1.33c.05-.35.12-1.28.25-2.46,0,0,4.72-4.9,5.28-5.46s.91-3.92,3.22-5.11a18.65,18.65,0,0,1,4.62-1.61s2.91-6.64,6.92-6.4-1.67,2.34-1.81,4S275.28,176.75,275.28,176.75Z" transform="translate(-226.83 -75.96)"/><path class="cls-2" d="M307.21,172.77c-1-1-2.4-1.48-3-2.06a13.58,13.58,0,0,1-1.73-2.67c-3.15-2.2-8-4.41-10.07-4.56-.69-.05-2.12-.16-3.85-.24-.73,2.29-1.43,4.61-2.07,7C293.4,170.82,300.3,171.85,307.21,172.77Z" transform="translate(-226.83 -75.96)"/><path class="cls-3" d="M305.79,180.93c1.42-2.2,2.83-5,2.2-6.92a3.22,3.22,0,0,0-.79-1.24c-6.9-.92-13.8-1.94-20.71-2.57.65-2.37,1.34-4.68,2.07-7-3.39-.16-8-.23-10.79.4-4.25.94-4.09,9.91-4.09,9.91s.63,9.28.31,11.33-1.26,8-1.26,8l3.15.79s2.47,1.89,5.21,3.63c5.14-5.2,12.59-8.86,20.16-11A56.41,56.41,0,0,0,305.79,180.93Z" transform="translate(-226.83 -75.96)"/><path class="cls-4" d="M355.5,157.2c-22.71-11-46.65.15-68,13.17a2.29,2.29,0,0,0,.36.15c1.44.31,10.22-.84,24-3.85s20.52-1.68,29.55.14,18.91,4.55,32.63,0a31.82,31.82,0,0,0,16.83-13.39C380,159.76,367.85,162.63,355.5,157.2Z" transform="translate(-226.83 -75.96)"/><path class="cls-4" d="M277.32,84.23c-3.75,1.37-25.18,10.33-24.8,36.85.31,21.6,18.78,38.19,28.92,45.44C262.64,139.87,252,107.66,277.32,84.23Z" transform="translate(-226.83 -75.96)"/><path class="cls-2" d="M359.95,144.61c-5.31-9.66,5.87-18.76,12.51-23.08-20.07,4.52-59.68,20-59.68,20,22.55-11.9,46.73-19.15,58-22.07-7.58.44-19.75.18-21.94-5.68-2.33-6.22,8.74-12.18,15.08-15-33.26,7.91-56.13,29.4-56.13,29.4,12.56-16.06,41.09-27.07,52.68-31-7.87-.16-19-1.2-19.06-5.87-.05-5.35,7.4-11.14,11.26-13.79-17.52,6.54-34.3,23.78-34.3,23.78C330,85.2,347.62,78.05,353.69,76a52.08,52.08,0,0,0-29.78,9.34c-12,8.2-10.95,16.7-23.57,14.85-7-1-7.18-7.85-1-14.63a75,75,0,0,0-11.44,9.81c-13.18,13.55-8.72,35.82-8.72,35.82-9.45-27.89,14.08-44.91,22.11-49.77-4.66,1.08-12.66,3.57-17.41,8.65-12.87,13.79-13.37,8.6-13.75,5.75C269.64,92,277.89,84,277.89,84l-.57.2c-25.31,23.43-14.67,55.64,4.12,82.29a49.37,49.37,0,0,0,6.09,3.86c20.36,1.69,45.26-24.14,68-13.17,12.35,5.43,24.46,2.56,35.35-3.78a23.9,23.9,0,0,0,1.8-3.35S367.3,158,359.95,144.61Z" transform="translate(-226.83 -75.96)"/><path class="cls-5" d="M372.45,121.53c2.56-1.66,4.44-2.62,4.44-2.62s-2.56.36-6.14.56c-11.25,2.92-35.43,10.18-58,22.07C312.77,141.55,352.38,126.05,372.45,121.53Z" transform="translate(-226.83 -75.96)"/><path class="cls-5" d="M307.76,128.18s22.87-21.49,56.13-29.4c2.44-1.09,4.18-1.72,4.18-1.72s-3.33.18-7.63.09C348.85,101.11,320.32,112.12,307.76,128.18Z" transform="translate(-226.83 -75.96)"/><path class="cls-5" d="M318.34,101.27S335.12,84,352.64,77.5C354,76.57,354.9,76,354.9,76s-.43,0-1.21-.06C347.62,78.05,330,85.2,318.34,101.27Z" transform="translate(-226.83 -75.96)"/><path class="cls-5" d="M279.18,131.15s-4.45-22.27,8.72-35.82a75,75,0,0,1,11.44-9.81A33.29,33.29,0,0,1,305,80.67s-1.47.2-3.69.71C293.26,86.24,269.73,103.26,279.18,131.15Z" transform="translate(-226.83 -75.96)"/><path class="cls-6" d="M284.81,156.75a1.06,1.06,0,0,1,0-.3c.19-1.5.32-7.82.32-7.82l2.92,6Z" transform="translate(-226.83 -75.96)"/><path class="cls-7" d="M281.11,197.31c3.13,2,6.63,3.78,7.22,2.35,1.1-2.68,6.92-6.61,8.5-8.5.77-.93,2.61-2.88,4.45-4.89C293.7,188.45,286.25,192.1,281.11,197.31Z" transform="translate(-226.83 -75.96)"/><path class="cls-1" d="M299.5,181.2v4c-2.81,5.62-7.83,7.76-13.29,8,1.48,1.52,2.78,2.65,3.37,2.18.79-.63,4.09-1.57,6.77-3s4.88-4.41,6.29-5.82,4.25-1.89,5.82-6.77a9.64,9.64,0,0,0,.5-2.91C306.84,179.66,303.17,182.12,299.5,181.2Z" transform="translate(-226.83 -75.96)"/><path class="cls-8" d="M306.11,172.28c-2.67-.31-4.41.16-6.14,2s-2.52,6-2.52,6c-4.41-.16-7.4,4.88-7.4,4.88a8.9,8.9,0,0,0-1.85-2.79c.19,3.49.58,7.18-1.07,8.83a2.7,2.7,0,0,1-1.68,1.21l.76.8c5.46-.27,10.48-2.42,13.29-8v-4c3.67.92,7.34-1.54,9.47-4.27C309,174,307.26,172.42,306.11,172.28Z" transform="translate(-226.83 -75.96)"/><path class="cls-2" d="M279.48,173.53s3.57-2.38,4.27-2.38,1.12,1.4,1.26,1.68,1,.14,1,.14l.7-1.61.28.7.42.21.91-.63-.63,2a1.45,1.45,0,0,0,.77.35c.49.07,1.26-.7,2-.21s1.05,3.43,1.12,5.32c0,0-.91-1.68-1.89-1.75a2.64,2.64,0,0,0-1.82.84s.07-1.75-.84-1.89a5.6,5.6,0,0,0-2.45.63s.14-1.61-.63-1.89-2.24.56-2.24.56.63-1.54-.14-1.82A6.81,6.81,0,0,0,279.48,173.53Z" transform="translate(-226.83 -75.96)"/><path class="cls-1" d="M272.83,189.64c1.12.14,6.3,1.05,9.45,3.15a64,64,0,0,1,7.07,5.88l-2.45,4.41s-3.71-4.62-8.19-6.58a27.36,27.36,0,0,0-6.93-2.24Z" transform="translate(-226.83 -75.96)"/><path class="cls-9" d="M284.46,167.42a.36.36,0,0,0-.14.38c.15.37.52.73.44,1s-.73,1.47-.22,2.13,4.55-.73,6-1.25c1.11-.39,1.13-1.69,1.07-2.31C289.25,167.24,286.76,167.44,284.46,167.42Z" transform="translate(-226.83 -75.96)"/><path class="cls-10" d="M287.85,164.49c-.29.15-4,1-4,1a1.37,1.37,0,0,1,.37.88c0,.51,0,1,.37.88s0,0-.15.21c2.29,0,4.79-.17,7.17-.1,0-.2,0-.33,0-.33Z" transform="translate(-226.83 -75.96)"/><path class="cls-11" d="M287.56,155.15a6,6,0,0,0-2.29.14c-1.13.31-2,2-2.51,3.2a6.28,6.28,0,0,0,.61,4.09l-.29,3.74a22.13,22.13,0,0,0,4.48-1,6,6,0,0,0,.37,1.91c.29.44-.87,3.54-.87,3.54s1.38-.27,2.79-.63c2.3-.59,5.64-1.47,7.26-2C296.68,161.55,296.3,153.71,287.56,155.15Z" transform="translate(-226.83 -75.96)"/><path class="cls-6" d="M297.62,163c-.37-.73,1.25-7.64-3.08-10.13s-9.91-.22-11.09,3a13.39,13.39,0,0,0-.68,2.59c.85-1.9,1.55-2.77,4.51-3.25,7.57-1.22,9.41,6.3,9.83,12.92l.22-.07c2.42-.88,2.72-1.47,2.72-1.47S298,163.76,297.62,163Z" transform="translate(-226.83 -75.96)"/><path class="cls-4" d="M291.6,155.13s3.45-4.85,5.58-7.12c0,0-.66,3.6-1,6.75a5.83,5.83,0,0,0-2.28-.15C293.07,154.84,291.6,155.13,291.6,155.13Z" transform="translate(-226.83 -75.96)"/><path class="cls-1" d="M261.5,229.2h-3c-.73-8,5.4-13.86,11.1-19.92a16.5,16.5,0,0,0-3.16-7.74c-2,2.43-4.7,5.59-7.06,8.75-4,5.38-6.64,11.31-6.54,15.89,0,2.16-1.89,3.33-2.76,5s-1.69,5.54-2.44,6.79c-.22.36-.57,1-1,1.71a3.57,3.57,0,0,1,2.68-.68,4.87,4.87,0,0,1,1.86,1.61C253.37,235.82,256.47,231.71,261.5,229.2Z" transform="translate(-226.83 -75.96)"/><path class="cls-7" d="M258.5,229.2h3c-5,2.52-8.13,6.62-10.32,11.34A30.62,30.62,0,0,1,255,247l.18-.37c1.63-3.37.75-7,2-8s2.5-4.25,3.37-5.75,4.37-4.87,5.75-6.5a18.66,18.66,0,0,1,2.26-2c.92-5.17,1.79-10.39,1.08-15.15C263.9,215.34,257.77,221.21,258.5,229.2Z" transform="translate(-226.83 -75.96)"/><path class="cls-2" d="M280.76,195.78a58.46,58.46,0,0,0-8.5-2.25s-1.5,2.5-2.75,4.25c-.51.72-1.64,2.06-3.07,3.75,4.89,6.42,3.53,14.71,2.08,22.89a63.53,63.53,0,0,1,7-4.89c.38,0,6.25-.37,8.5-3.87s3.12-13.38,3.12-13.38S283.39,196.91,280.76,195.78Z" transform="translate(-226.83 -75.96)"/><path class="cls-6" d="M251.84,241.43a6.72,6.72,0,0,0-2.53-2.49,3.57,3.57,0,0,0-2.68.68,72,72,0,0,0-3.62,7c-1.5,3.5-2.62,10.87-3.62,16.75s-5.62,12.87-6.37,14.25-4,3.94-5.66,4.76c-1.28.62-.11,2.79,2.53,2.62,3.87-.25,6.37.38,8.75-4a4.81,4.81,0,0,1,3.24-2.49,41.68,41.68,0,0,0-.62-6.85C246.3,261.79,251.73,252.46,251.84,241.43Z" transform="translate(-226.83 -75.96)"/><path class="cls-12" d="M247.76,260.91c1.45-2.9,5.46-10.34,7.19-13.88a33.59,33.59,0,0,0-3.11-5.6c-.11,11-5.54,20.37-10.58,30.26a41.68,41.68,0,0,1,.62,6.85,4.11,4.11,0,0,0,2.26-1.26c1.38-1.75-.25-4.37,0-5.87A58.66,58.66,0,0,1,247.76,260.91Z" transform="translate(-226.83 -75.96)"/><path class="cls-6" d="M276.43,168.3a2.64,2.64,0,0,0-.53.2c-.79-1.26-3-.16-3-.16a13.65,13.65,0,0,0-2,3,5.68,5.68,0,0,0,.94,3.78,22.88,22.88,0,0,0,3.3,2.83c.47.16.79,1.26,1.42,2s6.14,9.44,8.18,11.64l.75.8a2.7,2.7,0,0,0,1.68-1.21c1.44-1.44,1.33-4.43,1.15-7.48a35.37,35.37,0,0,0-12.79-7.56C277.25,173.57,278.24,170.93,276.43,168.3Z" transform="translate(-226.83 -75.96)"/><path class="cls-12" d="M280.15,175.43a3.59,3.59,0,0,1-1.1-3,5.47,5.47,0,0,0-.94-3.62,1.47,1.47,0,0,0-1.67-.51c1.81,2.63.83,5.26-.93,7.89a35.37,35.37,0,0,1,12.79,7.56c0-.45-.05-.91-.08-1.36C285.47,179.37,280.86,176.26,280.15,175.43Z" transform="translate(-226.83 -75.96)"/><path class="cls-1" d="M279.5,209.2v-3c-.71,5-1.43,10-3.6,14.25a20,20,0,0,0,2.49-.79c3.62-1.37,4.24-1.51,5.62-4a11.87,11.87,0,0,0,1.55-6.34A5,5,0,0,1,279.5,209.2Z" transform="translate(-226.83 -75.96)"/><path class="cls-8" d="M281.76,199.28c-.75-.62-5.63-4.81-8.75,2.37-8.37,19.25-3.25,13.5-2.12,16.63.85,2.36,2.63,2.72,5,2.16,2.17-4.27,2.89-9.26,3.6-14.25v3a5,5,0,0,0,6.06.12,15.84,15.84,0,0,0-1.17-5.16C283.26,201.28,282.51,199.91,281.76,199.28Z" transform="translate(-226.83 -75.96)"/><path class="cls-13" d="M272.55,188.87a31.71,31.71,0,0,1,4.48.91,29.23,29.23,0,0,1,3.78,1.61l-2.59,6a14.35,14.35,0,0,0-3.78-1.68,27.08,27.08,0,0,0-3.22-.63Z" transform="translate(-226.83 -75.96)"/><path class="cls-14" d="M277.11,210.08c-1.34-1.74-3.08-2.66-4-2.3-4.62,1.88-7.5,8.38-8.25,15.13s-3.13,10-4.13,12.62c-.74,1.94-1.85,3-2.23,4A13.4,13.4,0,0,1,257,243.2c-.77,1.2-1.39,1.07-3.46,3.71-1.58,2-.75,3.32,0,5.44a3.14,3.14,0,0,0,2.83,2.27,38.26,38.26,0,0,0,7.09-15.42C265.19,229.9,276.18,220.59,277.11,210.08Z" transform="translate(-226.83 -75.96)"/><path class="cls-12" d="M277.11,210.08c-.93,10.51-11.92,19.81-13.61,29.11a38.26,38.26,0,0,1-7.09,15.42,9.1,9.1,0,0,0,2.24,0c1.42-.18,2.48-3.54,2.73-4.42s.92-3.28,1.5-4.75a15.08,15.08,0,0,1,2-2.87c.63-.87.5-1.62,1.12-3.87s4.87-7.25,7.75-11.5a31.72,31.72,0,0,0,4.62-9A8.35,8.35,0,0,0,277.11,210.08Z" transform="translate(-226.83 -75.96)"/><path class="cls-15" d="M271.57,166.25l0,.12.38.37.23-.21A.43.43,0,0,1,271.57,166.25Z" transform="translate(-226.83 -75.96)"/><path class="cls-6" d="M273.53,163.65a5.45,5.45,0,0,0-.49-1.19,1.93,1.93,0,0,0-.07-.84c-.14-.28-.91-.7-.91-.7-.07-.49-.35-1.61-1-1.47a25.46,25.46,0,0,0-3.85,1.05c-.67.53-.77,6-1.26,6.72-1.36,2.13-5.46,6.23-6.79,9a20.38,20.38,0,0,0-1.43,6c.28.95,2.55.46,4.83-.39,3.88-5.48,4.42-11.29,4.12-11.82s1.87-2.13,2-2.47a10.43,10.43,0,0,1,1.27-2.2c.23-.19,1.06.55,1.56,1l0-.12a.43.43,0,0,0,.56.28,3.62,3.62,0,0,0,1.26-1.26c.14-.28-.35-.77-.35-.77S273.6,164.07,273.53,163.65Z" transform="translate(-226.83 -75.96)"/><path class="cls-12" d="M269,170.38a2.17,2.17,0,0,1,1.12-1.61,6,6,0,0,0,1.43-2.4c-.49-.47-1.33-1.21-1.56-1a10.43,10.43,0,0,0-1.27,2.2c-.13.33-2.33,1.87-2,2.47s-.25,6.34-4.12,11.82a18.17,18.17,0,0,0,4.93-2.48C269.11,177.26,268.91,170.94,269,170.38Z" transform="translate(-226.83 -75.96)"/><polygon class="cls-5" points="61.05 84.68 57.88 85.74 58.05 87.59 61.05 84.68"/><polygon class="cls-16" points="47 114.44 46.05 117.97 50.46 119.33 52.02 116.07 47 114.44"/><path class="cls-6" d="M282.86,166.31l.47-3.62a13.06,13.06,0,0,1-.69-2,9.32,9.32,0,0,1,.66-4.21,7.71,7.71,0,0,1,1.07-1.64s-1.51,4.72-1.13,5.88a15.71,15.71,0,0,0,.79,2l-.31,3.62Z" transform="translate(-226.83 -75.96)"/></svg>