<svg id="art" xmlns="http://www.w3.org/2000/svg" viewBox="0 0 114.03 173.22"><defs><style>.cls-1{fill:#de5330;}.cls-2{fill:#69261c;}.cls-3{fill:none;}.cls-4{fill:#615222;}.cls-5{fill:#f8c627;}.cls-6{fill:#b07228;}.cls-7{fill:#d99468;}.cls-8{fill:#bc7359;}.cls-9{fill:#e0ac7a;}.cls-10{fill:#2a3834;}.cls-11{fill:#f3ebd8;}.cls-12{fill:#e9b02e;}.cls-13{fill:#6ca1b4;}</style></defs><title>GWR-Superheroes-CAPTAIN-MARVEL</title><path class="cls-1" d="M303.83,130l-1.14.48c-.42-4.14-1.21-4.58-2.77-5-.88-.24-1.56-.34-2.29-.56l7.78,8.81C304.56,131.66,303.83,130,303.83,130Z" transform="translate(-231.94 -96.99)"/><path class="cls-1" d="M309.58,146.44c-2.26,1-4.54,2.3-5.33,3.89s-1.94,3.82-2.87,5.64l.13.28c.58,1.33,4.25,3.83,5.67,4.5s7.25-7.67,7.25-7.67l-4.08-3.92S310,148,309.58,146.44Z" transform="translate(-231.94 -96.99)"/><path class="cls-2" d="M297.63,124.91l-3.37-3.82L292.53,123a11.16,11.16,0,0,1,3.13,1A8.39,8.39,0,0,0,297.63,124.91Z" transform="translate(-231.94 -96.99)"/><path class="cls-3" d="M280.25,188.58l1.68,15.61c-.57-5.45-1-14.38-1.4-17C280.41,188,280.25,188.58,280.25,188.58Z" transform="translate(-231.94 -96.99)"/><path class="cls-2" d="M277.29,225.92a15.65,15.65,0,0,1-.27-7.49c.48-2.18,1.45-8.73,2-14.66.48-5.72.6-14.45,1.46-17.16,0,.13.06.33.09.55.25-1.74.34-4.48-1.52-4.82-2.75-.5-5.25-3.25-5.25-3.25-.5,3.75,2.25,16.5,1,22.5s-3,7-2.75,8.5,2,3.75,1.25,5.5a15.34,15.34,0,0,0,0,10.75c1.75,4.5,1.5,17,1.5,17l2.32-1.16a23.59,23.59,0,0,0,.46-4.39C277.59,234,278.05,229.36,277.29,225.92Z" transform="translate(-231.94 -96.99)"/><path class="cls-1" d="M284.25,162.58c1.75-2.5,4-6,3.25-11s-8-8.75-5.25-9.25c0,0,6.5-.25,9.5-1.25s.5-4.25.25-7.25a84.19,84.19,0,0,0-1.5-8.5l2-2.3a29.08,29.08,0,0,1-6.47-2.05l-5.51.85-7.38-1c-4.38,2.16-7.82,2.14-9.54,3.23a8.37,8.37,0,0,1-2,.95,13.82,13.82,0,0,0-5.86,1.11c-3.95,1.59-7.37,6-8.81,7.92s-4.85,2.57-8.9,6.93-5,7.85-5.68,8.83-.64,3.31,1,3.94,4.35,5.66,10.07,7,9,2.64,9.92,3.36,4.84-1,4.93-1.23,1.37-4.29,1.37-4.29-7-5-8.38-6.49l0,0-3,.72-6.75-7.5s3.75.25,8.5-2.75,6-6.25,6-6.25a17.4,17.4,0,0,0,4.5,1.25c3,.5,6.67,6.17,13.08,4.58s-1.58,2.92-5.83,3.42a26.37,26.37,0,0,1-7.75-.25l-1.47,2.32a8.55,8.55,0,0,0,.75,2.46c1.24,2,4.33,7.36,4.48,8.77s1.23,4.06.9,6.56c0,.14,0,.3-.07.46l25.92-.23C288.79,161.87,282.87,164.55,284.25,162.58Z" transform="translate(-231.94 -96.99)"/><path class="cls-2" d="M290.75,170.33a8.11,8.11,0,0,0-.25-4.67l-25.92.23c-.11.62-.28,1.39-.48,2.23a156.38,156.38,0,0,1,26.31,3.37A6.8,6.8,0,0,0,290.75,170.33Z" transform="translate(-231.94 -96.99)"/><path class="cls-1" d="M264.11,168.12c-.67,2.83-1.64,6.54-1.54,8.7.14,3-1,14.89.22,23.48s2.73,9.63,2.56,11.81.11,8.9-.53,11.39-.34,10.84,1.82,16.16,4.1,11.85,4.1,11.85l3.78-3.14a15,15,0,0,0,2.56-6.21l-2.32,1.16s.25-12.5-1.5-17a15.34,15.34,0,0,1,0-10.75c.75-1.75-1-4-1.25-5.5s1.5-2.5,2.75-8.5-1.5-18.75-1-22.5c0,0,2.5,2.75,5.25,3.25,1.86.34,1.77,3.08,1.52,4.82.36,2.65.83,11.58,1.4,17a143,143,0,0,0,2.24,14.43,15.66,15.66,0,0,1-.12,7.5c-.69,3.45-.42,8.13,0,11.87s1.23,9.95,1.23,9.95l4.44,2.44c.08-2.82,1.32-8.17,2.56-12.79,1.75-6.5,1.67-18.25,2.67-21.25s-1.17-4.92-.17-8.67c.59-2.22-.58-8-.51-12.85A60.79,60.79,0,0,0,291,184.08c-3.19-7-1.44-10.26-.59-12.59A156.38,156.38,0,0,0,264.11,168.12Z" transform="translate(-231.94 -96.99)"/><path class="cls-2" d="M307.33,138.83c-.49-1.5-1.25-3.44-1.93-5.12l-7.78-8.81a8.39,8.39,0,0,1-2-.89,11.16,11.16,0,0,0-3.13-1l-2,2.3a84.19,84.19,0,0,1,1.5,8.5c.25,3,2.75,6.25-.25,7.25s-9.5,1.25-9.5,1.25c-2.75.5,4.5,4.25,5.25,9.25s-1.5,8.5-3.25,11,8.25-2.5,6.5,7.75c-.42,2.48-3.5,5.5.25,13.75a60.7,60.7,0,0,1,3.24,10.73c-.07,4.86-.39,10.3-1,12.52-1,3.75,2.5,6.67-.17,10.5-1.81,2.6.92,13.25-.83,19.75-1.24,4.61-2.48,10-2.56,12.79l1.38.76s1.84-6.12,3.89-11.48.82-13,.75-16.16c-.06-2.57.2-9.22,0-11.4-.13-1.3.33-2.46.86-5a59.42,59.42,0,0,0,1-7.54c.52-6.71-1-20.48-1.45-23.42-.64-4.19-.69-11.23-1-13.49a23.45,23.45,0,0,1,1-8.88,31.12,31.12,0,0,0,1.89-5.14c.66,1.48,2.64,5.75,3.38,7.39.94-1.82,2-4,2.88-5.64s3.07-2.91,5.33-3.89C308.92,144.11,308,140.82,307.33,138.83Zm-11.24,65.41c-.21-1.22-.44-2.5-.69-3.81C295.65,201.74,295.88,203,296.09,204.24Z" transform="translate(-231.94 -96.99)"/><path class="cls-2" d="M267.75,145.58c4.25-.5,12.25-5,5.83-3.42s-10.08-4.08-13.08-4.58a17.4,17.4,0,0,1-4.5-1.25s-1.25,3.25-6,6.25-8.5,2.75-8.5,2.75l6.75,7.5,3-.72c-1.34-1.53-3.8-4.29-3.8-4.29a10.37,10.37,0,0,0,5.83-2.12,22,22,0,0,0,4.52-4.31,59.29,59.29,0,0,0,.76,6.26l1.47-2.32A26.37,26.37,0,0,0,267.75,145.58Z" transform="translate(-231.94 -96.99)"/><path class="cls-4" d="M292.91,254.05a19.94,19.94,0,0,1-.47-4.38l-.13-2-7.18-.19s.19,3.92.08,4.87a6.88,6.88,0,0,1-.4,1.4c2.87.79,5.7,1.67,8.5,2.61A11,11,0,0,0,292.91,254.05Z" transform="translate(-231.94 -96.99)"/><path class="cls-5" d="M289.2,255q-2.18-.67-4.39-1.28a20.81,20.81,0,0,0-.84,2.49c-.24,1.16.38,3.51.29,5.07s-1,5.78-1,6.8,1.35,2.06,6.09,2.11h1.09A61.29,61.29,0,0,0,289.2,255Z" transform="translate(-231.94 -96.99)"/><path class="cls-6" d="M295.12,264.27c-.64-1-2-4.74-1.8-5.7a9.9,9.9,0,0,0,0-2.24q-2-.68-4.12-1.32a61.29,61.29,0,0,1,1.23,15.19c4-.07,5.75-.81,6-1.5S295.76,265.27,295.12,264.27Z" transform="translate(-231.94 -96.99)"/><path class="cls-5" d="M279.7,160.19c-7.25.27-16,.89-16,.89l-.18,6.44s7-.27,14.94-.63c3.63-.16,7.53-.23,10.7-.26.17-2.21.31-4.4.3-6.56C286.57,160.06,283,160.07,279.7,160.19Z" transform="translate(-231.94 -96.99)"/><path class="cls-6" d="M295.7,166.63l-.36-6.44s-2.47-.08-5.88-.11c0,2.16-.13,4.35-.3,6.56C292.94,166.61,295.7,166.63,295.7,166.63Z" transform="translate(-231.94 -96.99)"/><path class="cls-7" d="M271.88,114.64c-.13,2.43-.51,7.43-.51,7.43s1.25,4.38,7.52,4.38c3.46,0,5-.52,5.71-1.18C279,123.45,274.28,120.08,271.88,114.64Z" transform="translate(-231.94 -96.99)"/><path class="cls-8" d="M285.25,123.59c.09-1.16-.36-2.77-.36-4.74s-.18-5.55-.18-5.55l-12.8.72c0,.18,0,.39,0,.62,2.4,5.44,7.09,8.81,12.72,10.64A2.26,2.26,0,0,0,285.25,123.59Z" transform="translate(-231.94 -96.99)"/><path class="cls-6" d="M240.08,153.33c-1.92,1.83-1.58,6.08-1.58,6.08a20.53,20.53,0,0,0,5.5,2.17,110.56,110.56,0,0,1,10.67,3.67,14.39,14.39,0,0,1,1.73-3.66c-5.69-2.94-11.12-6.69-16.71-10A5.44,5.44,0,0,0,240.08,153.33Z" transform="translate(-231.94 -96.99)"/><path class="cls-5" d="M259.92,158.42s-1.17-.67-2-1.17-7.33-6.17-8.33-7.08-1.33-2.25-2.37-2.24a2.81,2.81,0,0,0-1.8.82s-1.92-2.83-4.33-.67a4.17,4.17,0,0,0-1.4,3.47c5.6,3.35,11,7.1,16.71,10,.09-.14.17-.28.27-.42A7.24,7.24,0,0,1,259.92,158.42Z" transform="translate(-231.94 -96.99)"/><path class="cls-5" d="M274.83,129.5l9.17,1.25-2,9.08,2.83.42-3.5,7.75,2.5-.17s-8.25,11.25-8.08,11,1.75-9.08,1.75-9.08l-2.33-.17,2.42-7.08-4-.33Z" transform="translate(-231.94 -96.99)"/><path class="cls-9" d="M286.61,109.17c-.31-2.25-1.39-.17-1.39-.17a30.6,30.6,0,0,0-.62-5.08c-.41-1.41-3.44-3.33-5.1-3.87v-.22l-1,.06-.9-.06V100c-1.74.46-5.18,2.46-5.63,3.91a28.56,28.56,0,0,0-.67,5.08s-1.17-2.08-1.5.17a6.81,6.81,0,0,0,.83,4.17,7.69,7.69,0,0,0,1.17,1.58,7.71,7.71,0,0,0,.83,2.75,16.27,16.27,0,0,0,4.25,2.75,2.83,2.83,0,0,0,1.62.29,4.59,4.59,0,0,0,2.13-.29,11.55,11.55,0,0,0,3.32-2.75,8.16,8.16,0,0,0,.77-2.75,7.64,7.64,0,0,0,1.08-1.58A7.23,7.23,0,0,0,286.61,109.17Z" transform="translate(-231.94 -96.99)"/><path class="cls-10" d="M278.92,102.67a8.93,8.93,0,0,1-2.58-.58,2.79,2.79,0,0,0-2.33.17c-.42.42-.42,1.92-.58,2.5s-.92,1.75-1.08,2.33-.5,2.92-.5,2.92v.83l-.5-.33a3.36,3.36,0,0,0-.42-1.92,6.13,6.13,0,0,1-.5-4.17c.42-1.17.37-2.25,1-3.33a11.16,11.16,0,0,1,2.06-2.74,6.25,6.25,0,0,1,2.58-1,13.13,13.13,0,0,1,2.53-.31,20.29,20.29,0,0,1,2.58.5,15.38,15.38,0,0,1,1.92.75,7.51,7.51,0,0,1,1,.75,25,25,0,0,1,1.58,3.08c.17.67.67,1.75.5,2.17a11.77,11.77,0,0,0-.08,1.67,14.77,14.77,0,0,0-.08,1.75l-.58,2.17-.17.58-.25-.58s-.17-1.92-.17-2.92-1-2.05-1-3.08a2.39,2.39,0,0,0-2.08-2.25C281.17,101.5,279.83,102.67,278.92,102.67Z" transform="translate(-231.94 -96.99)"/><path class="cls-5" d="M324.08,158.92l1.25-.08s-7.25-4.25-8.67-5.58-3-2.42-3.83-2.33c-1,.1-3.25,1.17-5.25,4.08-.12.18-.22.34-.33.51a60.42,60.42,0,0,0,14.7,6A3,3,0,0,1,324.08,158.92Z" transform="translate(-231.94 -96.99)"/><path class="cls-6" d="M322,161.54a60.42,60.42,0,0,1-14.7-6c-1.66,2.61-1.72,4.29-1.17,5.07s11,3,12.75,3.67a7,7,0,0,0,3.08.5A10.36,10.36,0,0,1,322,161.54Z" transform="translate(-231.94 -96.99)"/><path class="cls-5" d="M266.88,121.75a1.79,1.79,0,0,1,1.85.85,1.82,1.82,0,0,1,1.84.88,61.08,61.08,0,0,0,3.71,1.66,25.53,25.53,0,0,0,3.85,1.21,51.49,51.49,0,0,0,4,.74,1.84,1.84,0,0,1,2,.3,1.8,1.8,0,0,1,2,.32,1.76,1.76,0,0,1,2,.39,1.69,1.69,0,0,1,2.05.63,11,11,0,0,0-1.41.5,2.08,2.08,0,0,1-2.48-.22,1.88,1.88,0,0,1-2-.33,1.86,1.86,0,0,1-2-.3,1.83,1.83,0,0,1-2-.32,1.77,1.77,0,0,1-2-.38,25.69,25.69,0,0,1-3.87-1.14,1.74,1.74,0,0,1-1.87-.77,1.78,1.78,0,0,1-1.85-.85,1.83,1.83,0,0,1-1.84-.88,1.85,1.85,0,0,1-1.84-.86,3.3,3.3,0,0,1-1.81.16A1.51,1.51,0,0,1,266.88,121.75Z" transform="translate(-231.94 -96.99)"/><path class="cls-10" d="M273.14,107.23a2.13,2.13,0,0,1,2-.82,11.62,11.62,0,0,0,2.21.36,2.67,2.67,0,0,0,.61-.11s-.32,1.11-1,1a16,16,0,0,0-2-.57C274.32,107.09,273.14,107.23,273.14,107.23Z" transform="translate(-231.94 -96.99)"/><path class="cls-10" d="M284.15,107.1a2,2,0,0,0-2-.68,11,11,0,0,1-2.07.44,2.51,2.51,0,0,1-.58-.07s.36,1,1,.89a14.91,14.91,0,0,1,1.89-.63C283,107,284.15,107.1,284.15,107.1Z" transform="translate(-231.94 -96.99)"/><path class="cls-5" d="M289.71,240.08a36.19,36.19,0,0,0-4.87-.05c-.81,0-.94,2.4-1.11,3.62s-.23,5.62.18,6,1.7.15,3.86-.05a7.74,7.74,0,0,1,1.4,0c.44-3.18.79-6.28,1-9.51Z" transform="translate(-231.94 -96.99)"/><path class="cls-6" d="M296.12,241.71c-.28-.77-2.88-1.31-6-1.59-.17,3.23-.53,6.34-1,9.51a37.49,37.49,0,0,1,4.86,1c.68.11.84-1.38.92-3.07S296.42,242.51,296.12,241.71Z" transform="translate(-231.94 -96.99)"/><path class="cls-4" d="M277.35,252.18c-.14-.95-.07-4.87-.07-4.87l-7.17.41-.07,2c0,.82,0,1.59-.06,2.29,2.71.53,5.38,1.19,8,2A9.13,9.13,0,0,1,277.35,252.18Z" transform="translate(-231.94 -96.99)"/><path class="cls-5" d="M274.21,253c-1.39-.35-2.8-.67-4.23-.94a8.47,8.47,0,0,1-.28,2.11,13,13,0,0,0-.27,4.53c.2.95-1,4.74-1.62,5.75s-1.56,3.72-1.22,4.46,2.44,1.49,7.17,1.29l.79,0A55.22,55.22,0,0,0,274.21,253Z" transform="translate(-231.94 -96.99)"/><path class="cls-6" d="M279.78,267.87c-.07-1-1.08-5.21-1.22-6.76s.41-3.92.14-5.07a15.38,15.38,0,0,0-.74-2c-1.23-.37-2.49-.7-3.75-1a55.22,55.22,0,0,1,.34,17.15C278.65,269.84,279.85,268.83,279.78,267.87Z" transform="translate(-231.94 -96.99)"/><path class="cls-5" d="M273.14,240l-.66.07c-3.28.38-6.09,1-6.36,1.83s1.22,4.13,1.35,5.82.34,3.18,1,3a41.74,41.74,0,0,1,4.55-1.12A38.93,38.93,0,0,0,273.14,240Z" transform="translate(-231.94 -96.99)"/><path class="cls-6" d="M278.57,243.45c-.2-1.22-.41-3.58-1.22-3.58a38.32,38.32,0,0,0-4.21.14,38.93,38.93,0,0,1-.1,9.63,8.42,8.42,0,0,1,1.67-.1c2.16.13,3.45.34,3.86-.07S278.77,244.67,278.57,243.45Z" transform="translate(-231.94 -96.99)"/><path class="cls-9" d="M258,159.39a11.89,11.89,0,0,0-3.13,3.76c-.45.81-.89,1.61-.54,2.15a25.42,25.42,0,0,1,2.06,4.47,4.89,4.89,0,0,0,.81,1.7s-1.07.72-.54,1.61a23.1,23.1,0,0,0,2.15,2.51c.36.45.89,0,1.61-.45s2.06-1,1.61-2a3.49,3.49,0,0,0,1.52-.81c.45-.54.18-1.43.54-1.52a1.92,1.92,0,0,0,1.34-2.86s1.34-.81,1.34-1.52-.81-1.79-1.88-3-4.74-4.56-5.46-4.74S258.49,159.12,258,159.39Z" transform="translate(-231.94 -96.99)"/><path class="cls-9" d="M326.42,159.08c-.58-.08-2.67-.5-3.33,0a8.28,8.28,0,0,0-1.75,3.25c-.08.58-.25,1.92.17,2.17a9.6,9.6,0,0,0,1.92,1.17,5.07,5.07,0,0,0,2.33.33c.42-.17.58-.92.58-.92s.42,1.25,1.17,1.33,1.33-.92,1.33-.92.42,1.17,1,1.25c1.25.17,1.33-1.25,1.33-1.25a1.21,1.21,0,0,0,1.42,1c.5-.11.58-.83.58-.83a1.38,1.38,0,0,0,.83.25c.33-.08.83-1.83.58-2.67a13.7,13.7,0,0,0-1.67-3.5C332.5,159.42,327,159.17,326.42,159.08Z" transform="translate(-231.94 -96.99)"/><path class="cls-11" d="M335.25,129a59.76,59.76,0,0,0-16.76-9.33c-5.71,1.12-7.37,4.7-14.41,4A115.57,115.57,0,0,1,291.75,121l-4.47,1.71c.34,4.59,4.06,7.37,6,8.32,14.36,8.21,34.79,2.86,47.88,8.57A18.34,18.34,0,0,0,335.25,129Z" transform="translate(-231.94 -96.99)"/><path class="cls-12" d="M340.42,131.17c-8-5.25-6.83-11.17-16.92-11.75a19.82,19.82,0,0,0-5,.28A59.76,59.76,0,0,1,335.25,129a18.34,18.34,0,0,1,5.88,10.57c-13.09-5.71-33.52-.36-47.88-8.57-1.91-1-5.62-3.73-6-8.32l-1.2.46a8.08,8.08,0,0,0,4.08,9.58c6.17,3.33,14.83,9.75,24,8.67,7.74-.91,19.57-3.61,27.39,1a13.9,13.9,0,0,1,3.86,3.35,14.12,14.12,0,0,0,.53-3.23A12.19,12.19,0,0,0,340.42,131.17Z" transform="translate(-231.94 -96.99)"/><path class="cls-5" d="M295.25,126c-3-2.44-6.46-3-10-2.87.28,2.36.62,3.84.62,3.84s1.4-2.34,8.57,3.08a5.4,5.4,0,0,0,4.29.85c-.54-1.28-1-2.59-1.55-3.89A11.34,11.34,0,0,1,295.25,126Z" transform="translate(-231.94 -96.99)"/><path class="cls-5" d="M302.63,128.05a13.57,13.57,0,0,1-5.47-1c.51,1.3,1,2.61,1.55,3.89a15.17,15.17,0,0,0,5.62-2.51A5.66,5.66,0,0,1,302.63,128.05Z" transform="translate(-231.94 -96.99)"/><path class="cls-11" d="M289.25,116.22a23.25,23.25,0,0,0-4.41-.19,29.25,29.25,0,0,0,.15,4.62c.07.91.15,1.75.24,2.51,3.56-.14,7,.43,10,2.87a11.34,11.34,0,0,0,1.91,1C295.46,122.71,293.58,118.54,289.25,116.22Z" transform="translate(-231.94 -96.99)"/><path class="cls-5" d="M293.69,118.57a7.7,7.7,0,0,0-4.44-2.36c4.33,2.32,6.21,6.49,7.91,10.83a13.57,13.57,0,0,0,5.47,1C298.84,126.62,296.24,121.42,293.69,118.57Z" transform="translate(-231.94 -96.99)"/><path class="cls-5" d="M310.25,131.63a5.44,5.44,0,0,0-2,0,.8.8,0,0,0-.06-.09,1.53,1.53,0,0,0,.5-1,1.22,1.22,0,0,0-.84-1.48c-.57-.08-1.11.46-1.21,1.2a1.54,1.54,0,0,0,.22,1.06.73.73,0,0,0-.11.1,5.22,5.22,0,0,0-2-.62c-1.34-.18-2.47,0-2.52.41s1,.89,2.32,1.07a5.23,5.23,0,0,0,2.08-.06.7.7,0,0,0,.08.12,1.54,1.54,0,0,0-.5,1,1.22,1.22,0,0,0,.84,1.48c.57.08,1.11-.46,1.21-1.2a1.54,1.54,0,0,0-.22-1.06l.08-.07a5.43,5.43,0,0,0,1.92.58c1.34.18,2.47,0,2.52-.41S311.59,131.81,310.25,131.63Z" transform="translate(-231.94 -96.99)"/><path class="cls-5" d="M323.06,132.52a5.44,5.44,0,0,0-2,.31.75.75,0,0,0-.07-.08,1.54,1.54,0,0,0,.36-1,1.07,1.07,0,1,0-2.07,0,1.54,1.54,0,0,0,.36,1,.72.72,0,0,0-.1.11,5.23,5.23,0,0,0-2-.34c-1.35,0-2.44.33-2.44.75s1.09.75,2.44.75a5.23,5.23,0,0,0,2-.34.74.74,0,0,0,.1.11,1.54,1.54,0,0,0-.36,1,1.07,1.07,0,1,0,2.07,0,1.54,1.54,0,0,0-.36-1,.8.8,0,0,0,.07-.08,5.44,5.44,0,0,0,2,.31c1.35,0,2.44-.33,2.44-.75S324.41,132.52,323.06,132.52Z" transform="translate(-231.94 -96.99)"/><path class="cls-5" d="M335.14,133.6a5.44,5.44,0,0,0-2,0,.69.69,0,0,0-.06-.09,1.53,1.53,0,0,0,.52-.95,1.22,1.22,0,0,0-.81-1.5c-.56-.09-1.12.43-1.24,1.17a1.54,1.54,0,0,0,.19,1.06.73.73,0,0,0-.11.1,5.24,5.24,0,0,0-2-.66c-1.33-.21-2.46-.06-2.53.35s1,.91,2.29,1.12a5.23,5.23,0,0,0,2.08,0,.72.72,0,0,0,.08.13,1.53,1.53,0,0,0-.52.95,1.22,1.22,0,0,0,.81,1.5c.56.09,1.12-.43,1.24-1.17a1.54,1.54,0,0,0-.19-1.06l.08-.07a5.45,5.45,0,0,0,1.91.62c1.33.21,2.46.06,2.53-.35S336.48,133.81,335.14,133.6Z" transform="translate(-231.94 -96.99)"/><path class="cls-13" d="M275.64,101.13c.7-.5,1.44-1,1.56-1.93a2,2,0,0,0,0-.63c0-.12-.31-.35-.31-.43,0-.47.91-.11,1.06,0a1.91,1.91,0,0,1,.72,1.32,1.88,1.88,0,0,0,.3-2,2,2,0,0,1,.06,3.76,6.3,6.3,0,0,1-2.07.26c-.63,0-1.37.09-1.82-.42Z" transform="translate(-231.94 -96.99)"/></svg>