<svg id="art" xmlns="http://www.w3.org/2000/svg" viewBox="0 0 91.88 179.82"><defs><style>.cls-1{fill:#852929;}.cls-2{fill:#b78b55;}.cls-3{fill:#aa6e3d;}.cls-4{fill:#e5b673;}.cls-5{fill:#919fa1;}.cls-6{fill:#c73737;}.cls-7{fill:#2997bd;}.cls-8{fill:#006d8c;}.cls-9{fill:#db4642;}.cls-10{fill:#00546e;}.cls-11{fill:#cfdbdb;}.cls-12{fill:#fff;}.cls-13{fill:#5a8ebd;}.cls-14{fill:#3a75ae;}.cls-15{fill:#886133;}</style></defs><title>GWR-Superheroes-CAPTAIN-AMERICA</title><path class="cls-1" d="M258.54,134.39s-1,.47-1,1.13,1.41,1.65,1.41,1.65l1.41-.47,1.18-1.13s.56-1.46.42-1.6" transform="translate(-256.5 -101.1)"/><path class="cls-2" d="M293.35,125.87a10.15,10.15,0,0,1-.17,2.38,7.1,7.1,0,0,1-2.34,2.52s-2.93,4.68-2.12,4.68,7.21.81,9.19.81a46.92,46.92,0,0,0,8.53-1.93Z" transform="translate(-256.5 -101.1)"/><path class="cls-3" d="M307.91,133.78c.68-.45.54-2.43-.54-3.15s-2.21-2.93-2.75-4.14-.63-7.21-.63-7.21l-10.77,2.48s.13,2.23.13,4.11l13.09,8.46A8.82,8.82,0,0,0,307.91,133.78Z" transform="translate(-256.5 -101.1)"/><path class="cls-2" d="M306.94,114.83a1.66,1.66,0,0,0-1.63.66l-.76-3-2-.31a31.15,31.15,0,0,0,1,4c1,3-2,4-4,5a9.17,9.17,0,0,1,1.24,7.19,1.6,1.6,0,0,0,.35-.16,18.58,18.58,0,0,0,4-5.25c.25-1,.56-2.19.56-2.19s1,.1,1.17-.51S308.06,115,306.94,114.83Z" transform="translate(-256.5 -101.1)"/><path class="cls-4" d="M303.5,116.2a31.15,31.15,0,0,1-1-4l-3.42-.52-1.53,7.12,1.78,1.45h-4.15l1.24-1.18.11-.27a20.48,20.48,0,0,1,.27-2.53c.21-1.45.6-3.88.74-4.82l-2.06-.31-4.69,4.23s.56,7,.92,8.51,3,4.59,3.87,4.74a15.14,15.14,0,0,0,5.15-.19c.52-2.32,1.81-4,.26-6.49C303,120.9,304.5,119.2,303.5,116.2Z" transform="translate(-256.5 -101.1)"/><path class="cls-2" d="M296.52,118.78l-.11.27-1.24,1.18h4.15l.54-2.75,4.14,1.35-.54-5.71-6.78-1.83c-.15.95.32,3.5.11,5A20.48,20.48,0,0,0,296.52,118.78Z" transform="translate(-256.5 -101.1)"/><path class="cls-5" d="M291.24,110c.06-.49.15,1.78-.27,1.78s-1-.78-1-1.11-1-.67-1.31-1.17,0-.61,0-.61-.81-.61-.77-1.17.23-.45.23-.45a2.42,2.42,0,0,1-.35-1.23c.08-.5.62.45,1.39,1s.42,1,.77,1.9S291.2,110.29,291.24,110Z" transform="translate(-256.5 -101.1)"/><path class="cls-6" d="M285.58,275.5l.59.14c.11-.15.21-.3.33-.44-2-1-7,2-5-2,1-2,4-4,7-5-1.49-3.72-5.18-5.22-8.62-6.57,0,.31,0,.65,0,1,0,1.92.67,2.08-.08,3.33s-2.58,2.83-3.75,4.58-6,3-6.08,5.17c-.12,3.08,2.66,3.12,7.08,3.33a10.06,10.06,0,0,0,6.58-1.92A11.22,11.22,0,0,0,285.58,275.5Z" transform="translate(-256.5 -101.1)"/><path class="cls-1" d="M286.5,275.2c-.12.14-.21.3-.33.44l.83.19,2.5-1.08a21.74,21.74,0,0,0,.33-5.17,5.94,5.94,0,0,1,.25-3.42c.33-1.08.08-1.33.17-2.83s.33-.83.58-2.33.5-4.08.5-4.08l-10.67,1.67a10.09,10.09,0,0,0-.79,3c3.44,1.35,7.14,2.86,8.62,6.57-3,1-6,3-7,5C279.5,277.2,284.5,274.2,286.5,275.2Z" transform="translate(-256.5 -101.1)"/><path class="cls-6" d="M306.5,266.2h-7.33c.44.87.76,1.14.49,2.14-.33,1.25-1.67,4.83-2.08,6.08a5.07,5.07,0,0,0,2,5.75,5.44,5.44,0,0,0,3.2.74,10.44,10.44,0,0,0,1.71-2.71C307.5,271.2,299.5,271.2,306.5,266.2Z" transform="translate(-256.5 -101.1)"/><path class="cls-1" d="M308.5,267.17c.83-1,1.67-1.33,1.33-2.92a31.5,31.5,0,0,1-.42-4.25l-9,.08c-1,2.83-2.17,3.75-1.58,5.33a7.23,7.23,0,0,0,.34.78h7.33c-7,5,1,5-2,12a10.44,10.44,0,0,1-1.71,2.71,9.52,9.52,0,0,0,5.13-1.91c2-1.58,2.08-3.75,1.42-6.67S307.67,268.17,308.5,267.17Z" transform="translate(-256.5 -101.1)"/><path class="cls-1" d="M280.75,240.67c-.83.67-2.25,1.25-1.75,2.5s5.92,2.33,6.67,2.5a14.88,14.88,0,0,0,5-.83c1.83-.58,3.17-.75,3.58-1.5s1.25-1.67-2.17-2.67a15.57,15.57,0,0,0-7.25,0Z" transform="translate(-256.5 -101.1)"/><path class="cls-1" d="M300.58,242.5c-1.42.5-2.67,1.25-2.42,2.5s1.58,2.33,4.25,2.58,2.75.58,5.08-.08,6.5-1.17,6.25-3.17-2.33-2.17-4.58-2.42S300.58,242.5,300.58,242.5Z" transform="translate(-256.5 -101.1)"/><path class="cls-7" d="M286.38,228a6.73,6.73,0,0,1,1.13-4.5c1.38-2.62-.75-8.37-.75-8.37,1.38-2.25,1.38-7.12,1.75-12,.33-4.28.37-11.84.71-15.73l-8.8-6.06S277,196.67,278,205s2.33,11.33,2.25,12.5a33.14,33.14,0,0,0,.5,6.58A16.11,16.11,0,0,1,281,230c-.33,1.5-1.33,6.83-.08,18.08,1.09,9.77,3.93,11.05,4.66,11.22a37.08,37.08,0,0,1,.67-6.31A78.41,78.41,0,0,0,286.38,228Z" transform="translate(-256.5 -101.1)"/><path class="cls-8" d="M288.67,258.08l2.5-8.75s1.92-7.08,2-11-1.58-7.75-1.5-9.08.25-9.08.42-11.75,3.17-9.67,3.67-15.75a47.09,47.09,0,0,0-.08-9.92l-6.45-4.44c-.34,3.89-.38,11.45-.71,15.73-.37,4.87-.37,9.75-1.75,12,0,0,2.13,5.75.75,8.37a6.73,6.73,0,0,0-1.12,4.5,78.41,78.41,0,0,1-.12,25,37.08,37.08,0,0,0-.67,6.31l.17,0Z" transform="translate(-256.5 -101.1)"/><path class="cls-9" d="M290,244.27a13.75,13.75,0,0,1-4.29.48,9.11,9.11,0,0,1-3.83-.83,11.92,11.92,0,0,1-2.67-2s-.83.5-1.42,3.5-1.75,9.33-1.25,10.92,3.92,3.25,7.58,3.33a35.28,35.28,0,0,0,4.48-.19C290.33,254.48,291.26,249.34,290,244.27Z" transform="translate(-256.5 -101.1)"/><path class="cls-1" d="M295.33,249.17a59.4,59.4,0,0,0-.67-6.92s0,.83-3.25,1.67l-1.46.35c1.31,5.07.37,10.21-1.39,15.21,2.25-.24,4.24-.72,5.1-1.48C295.08,256.75,295.42,252.5,295.33,249.17Z" transform="translate(-256.5 -101.1)"/><path class="cls-7" d="M308.63,237.87c.88-6.37-4.12-9.25-2.62-11.75s.13-7.75.13-7.75c1.63-4,.38-13.12.38-13.12-2.8-3.8-8.67-5.3-11.71-5.85a42.46,42.46,0,0,0,.71,5.93c1.42,7.25,2.17,13.25,2.17,13.83s.08,6.08.58,7.5a16,16,0,0,1,.58,3.75s-.67,5.83.58,9.92,2.75,12.42,2.75,12.42l6.09-.08A103.5,103.5,0,0,1,308.63,237.87Z" transform="translate(-256.5 -101.1)"/><path class="cls-10" d="M312.33,237c-.08-3.08-2.25-7.67-2.58-8.75s.5-3.42.5-6.25,1.8-5.73,2.47-11.24a89.16,89.16,0,0,0-.45-21.46l-2.77-5.38-8.67,3.17s-5.5,2.75-5.67,3.58a42.51,42.51,0,0,0-.38,8.73c3,.54,8.91,2.05,11.71,5.85,0,0,1.25,9.12-.37,13.12,0,0,1.38,5.25-.12,7.75s3.5,5.37,2.63,11.75a103.5,103.5,0,0,0-.37,14.8h.58S312.42,240.08,312.33,237Z" transform="translate(-256.5 -101.1)"/><path class="cls-9" d="M280.29,151.43a24.4,24.4,0,0,0,1.55,5.07c1.42,2.83,2.75,11.5,2.92,11.67s1.29.12,3.2.23c-1-6.12-4.13-12-4.89-17.79C282.12,150.85,281.19,151.12,280.29,151.43Z" transform="translate(-256.5 -101.1)"/><path class="cls-11" d="M283.05,150.6c.76,5.83,3.93,11.67,4.89,17.79l3.39.18c-1.18-6.22-3.33-12.2-4.16-18.87C285.78,149.94,284.41,150.24,283.05,150.6Z" transform="translate(-256.5 -101.1)"/><path class="cls-11" d="M295.09,149c-1.33,0-2.66.07-4,.2.68,6.71,2.05,13.06,3,19.52l3.22.16C297.33,162.24,295.82,155.62,295.09,149Z" transform="translate(-256.5 -101.1)"/><path class="cls-9" d="M299.1,149.1c-1.33-.08-2.67-.13-4-.11.73,6.62,2.24,13.25,2.21,19.87l2.79.13C300.91,162.38,299.82,156,299.1,149.1Z" transform="translate(-256.5 -101.1)"/><path class="cls-11" d="M302.33,169.1c.64-6.5.67-12.83.67-19.61-1.29-.18-2.6-.31-3.9-.39.73,6.86,1.82,13.27,1,19.9Z" transform="translate(-256.5 -101.1)"/><path class="cls-1" d="M305.19,169.23A63.36,63.36,0,0,0,307,153.95c-2.12,4.37-2.66,9.81-3.7,15.2Z" transform="translate(-256.5 -101.1)"/><path class="cls-9" d="M303,149.49c0,6.78,0,13.11-.67,19.61l.93,0c1-5.38,1.58-10.83,3.7-15.2,0-1.23,0-2.46,0-3.72C305.68,149.94,304.35,149.68,303,149.49Z" transform="translate(-256.5 -101.1)"/><path class="cls-11" d="M307,150.23c0,1.25,0,2.49,0,3.72a15.68,15.68,0,0,1,2.05-3.22C308.35,150.55,307.68,150.38,307,150.23Z" transform="translate(-256.5 -101.1)"/><path class="cls-5" d="M309,150.73a15.68,15.68,0,0,0-2.05,3.22,63.36,63.36,0,0,1-1.77,15.29l2,.09c1.25-5.9,3.23-11.67,4.57-17.79C310.83,151.23,309.92,151,309,150.73Z" transform="translate(-256.5 -101.1)"/><path class="cls-1" d="M311.72,151.53c-1.34,6.12-3.33,11.9-4.57,17.79l2.11.09,3.17-7.75a65.19,65.19,0,0,0,3.08-8.69C314.27,152.43,313,152,311.72,151.53Z" transform="translate(-256.5 -101.1)"/><path class="cls-9" d="M287.17,149.7c.83,6.66,3,12.65,4.16,18.87l2.74.14c-.92-6.46-2.29-12.82-3-19.52C289.78,149.31,288.47,149.48,287.17,149.7Z" transform="translate(-256.5 -101.1)"/><path class="cls-11" d="M259.58,132.42s-3,8.33-3.08,10.33c-.07,1.75,1.51,2.54,3.52,3a24.91,24.91,0,0,1,3.42-11A22.47,22.47,0,0,1,259.58,132.42Z" transform="translate(-256.5 -101.1)"/><path class="cls-5" d="M277.13,140.19a29.59,29.59,0,0,1-12.62,3c3.64-1.46,4.1-4.5,4.85-7.59-1.78.73-4,.08-5.91-.82a24.91,24.91,0,0,0-3.42,11l.9.21c2.42.5,5.67,2.5,10.08,1.92,2-.26,3.92-.55,5.41-.77A16.32,16.32,0,0,0,277.13,140.19Z" transform="translate(-256.5 -101.1)"/><path class="cls-11" d="M274.54,133.86a10,10,0,0,0-4.62,1.47,3.72,3.72,0,0,1-.56.27c-.75,3.09-1.21,6.14-4.85,7.59a29.59,29.59,0,0,0,12.63-3A12.81,12.81,0,0,0,274.54,133.86Z" transform="translate(-256.5 -101.1)"/><path class="cls-11" d="M321.21,150.48a10.71,10.71,0,0,1-5.29.92,12.68,12.68,0,0,0-.25,1.67,52.76,52.76,0,0,0,.92,9.86c.62,2.74,3.92,3.26,6.35,3.27A56.29,56.29,0,0,0,321.21,150.48Z" transform="translate(-256.5 -101.1)"/><path class="cls-5" d="M326.67,157.17c-.37-3.25-1.13-6.93-1.48-8.56-1.26.64-2.61,1.33-4,1.87a56.29,56.29,0,0,1,1.72,15.71,17.74,17.74,0,0,0,2.65-.19A22.75,22.75,0,0,0,326.67,157.17Z" transform="translate(-256.5 -101.1)"/><path class="cls-8" d="M285.5,140.2c-2.76,0-5.51.94-8.27,1.53a16.81,16.81,0,0,1-.82,5.41c1.8-.28,3-.48,3-.48s.33,2.28.87,4.76c.36-.12.73-.23,1.09-.34C280.75,146.46,281.5,142.2,285.5,140.2Z" transform="translate(-256.5 -101.1)"/><path class="cls-8" d="M309,150.69a44.61,44.61,0,0,1,5.79,2,30.76,30.76,0,0,0-1.27-14.48A14,14,0,0,1,309,150.69Z" transform="translate(-256.5 -101.1)"/><path class="cls-7" d="M316.5,136.2c-4.26,0-7.66-2.83-11.27-5.48a24.85,24.85,0,0,1-7,1.12,17.58,17.58,0,0,1-7.08-1.83,35.65,35.65,0,0,0-4.25,1.75s-4-.67-6.25.25a7.25,7.25,0,0,0-3.08,2.08,10,10,0,0,0-3-.22,13,13,0,0,1,2.69,7.87c2.76-.59,5.51-1.53,8.27-1.53-4,2-4.75,6.26-4.12,10.89a50.7,50.7,0,0,1,27.61-.4,14,14,0,0,0,4.51-12.49,30.76,30.76,0,0,1,1.27,14.48l.72.3.39-1.59c.14-.57.27-1.1.29-1.22s-.12.58-.25,1.23a12.1,12.1,0,0,0,6.4-1.38C323.83,144.11,322.07,137,316.5,136.2Z" transform="translate(-256.5 -101.1)"/><path class="cls-8" d="M325,147.75s.92-8.67-2.5-11.92-8.92-3.08-8.92-3.08a59.28,59.28,0,0,0-6.08-2.83,23.15,23.15,0,0,1-2.27.8c3.61,2.65,7,5.48,11.27,5.48,5.57.8,7.33,7.91,5.82,13.81,1-.44,2-.93,2.87-1.4C325.07,148.07,325,147.75,325,147.75Z" transform="translate(-256.5 -101.1)"/><path class="cls-7" d="M295.89,103.27c-3.57.73-6.16,3.82-6.16,6.62a54.05,54.05,0,0,0,.58,7,8.33,8.33,0,0,0,3.4-.09c.87-.38,1.84-2.64,3-2.64s2.33,2.64,4.76,2.54l.15,0C302.48,111.15,301.23,106.16,295.89,103.27Z" transform="translate(-256.5 -101.1)"/><path class="cls-8" d="M306.42,107.81c-.87-2.92-4.56-4.71-8.93-4.71a7.94,7.94,0,0,0-1.6.16c5.34,2.89,6.59,7.89,5.73,13.39a11.13,11.13,0,0,0,4.61-1.59S307.3,110.73,306.42,107.81Z" transform="translate(-256.5 -101.1)"/><path class="cls-7" d="M307.08,173.08l-13-1.75-10.42-1.25-.09.25c-.43,1.19-2.26,6.3-3,8.65a28,28,0,0,1,5.23,3.6l25.87-4.2Z" transform="translate(-256.5 -101.1)"/><path class="cls-10" d="M285.79,182.59A31.16,31.16,0,0,1,294,194.12c.73.39,1,.21,1,.21s4.25-8.17,12.67-7.25,9.42-2.33,9.42-2.33l-5.5-6.36Z" transform="translate(-256.5 -101.1)"/><path class="cls-10" d="M280.57,179a11.41,11.41,0,0,0-.32,1.1,14.9,14.9,0,0,1-.58,2.17,19.39,19.39,0,0,1,10.08,7.25c2.08,3,3.46,4.18,4.29,4.62A29.73,29.73,0,0,0,280.57,179Z" transform="translate(-256.5 -101.1)"/><path class="cls-12" d="M299.3,110l1.91-.08-2.31-5.86h-2.35a15,15,0,0,0-1.51,2.79A18.25,18.25,0,0,0,294,110l1.67.08s.16-.53.38-1.23h2.8Zm-2.76-2.67a12.79,12.79,0,0,1,.73-1.71l.14-.13.77,1.84Z" transform="translate(-256.5 -101.1)"/><path class="cls-1" d="M275.3,108.63a4.69,4.69,0,0,0-.94,3l-.31,1.13c0,.21,0,.42,0,.62a3.15,3.15,0,0,1-.59,1.88c1,1.68,1.82,3.64,1.16,4.56a61.48,61.48,0,0,0-8.91,16.58,30.44,30.44,0,0,1,3.58,2.58s.82-3.26,1.59-6.34,2.32-7,4.11-9,1.06-3.89,1-4.89.61-2,.77-3.08-.34-3.66-.16-4.62.93-2.6.78-3S276.32,107.62,275.3,108.63Z" transform="translate(-256.5 -101.1)"/><path class="cls-9" d="M273.43,115.28a1.35,1.35,0,0,1-.77.51,13.93,13.93,0,0,1-.84-2.17c-.21-.87-1.14-3.17-1.13-4.36s-.42-2.58.14-3.86c.29-.65.59-1.27.82-1.75a1.27,1.27,0,0,1-.06-.67,2.33,2.33,0,0,0-.29-1.81c-.33-.45-1.22,1.3-1.54,1.94s-1.94,4.7-1.89,6.55,1.24,7.65,1.24,7.65a8.83,8.83,0,0,1-2.18,3.73l-9.43,14.23s.93-.13,4.11-.3c1.41-.08,2.48.48,4.06,1.44a61.48,61.48,0,0,1,8.91-16.58C275.24,118.92,274.44,117,273.43,115.28Z" transform="translate(-256.5 -101.1)"/><path class="cls-1" d="M270.69,109.27c0,1.19.91,3.48,1.13,4.36a13.93,13.93,0,0,0,.84,2.17s1.24-.13,1.36-2.39c0-.2,0-.41,0-.62l-.22.82-1.22-1.83s-.69-4.28-.49-5.07-.34-1-.21-1.82a2.35,2.35,0,0,0-.25-1.23c-.23.49-.54,1.1-.82,1.75C270.27,106.68,270.71,108.08,270.69,109.27Z" transform="translate(-256.5 -101.1)"/><path class="cls-9" d="M309.65,246.9c-.21,0-.42.08-.65.1-3.75.42-5.08.67-7.58-.08a5.09,5.09,0,0,1-3.25-2.5s-1.08,1.17-1.58,5-.83,8.08.17,9.58,8.76,3.35,13,2.29A70.74,70.74,0,0,1,309.65,246.9Z" transform="translate(-256.5 -101.1)"/><path class="cls-1" d="M316.33,256.67c-.58-3.5-1.87-8.41-1.87-9.66a11.91,11.91,0,0,0-.91-3.4,5,5,0,0,1-3.91,3.29,70.74,70.74,0,0,0,.08,14.4l.2,0C314.08,260.08,316.92,260.17,316.33,256.67Z" transform="translate(-256.5 -101.1)"/><path class="cls-9" d="M283.5,165.08a86.93,86.93,0,0,0,19.17,2.08c9.25-.25,0,5.42,0,5.42s-11,.25-14.5-.5-5-1-5-1Z" transform="translate(-256.5 -101.1)"/><path class="cls-13" d="M313.12,151.84a116.45,116.45,0,0,0-17,22c6.32-5.73,13.05-11,19.29-16.45C314.54,155.52,313.77,153.66,313.12,151.84Z" transform="translate(-256.5 -101.1)"/><path class="cls-12" d="M315.39,157.38c-6.23,5.4-13,10.72-19.29,16.45-1.9,3.15-3.42,6-4.57,8.25l26-20.34C316.79,160.29,316.05,158.83,315.39,157.38Z" transform="translate(-256.5 -101.1)"/><path class="cls-9" d="M317.56,161.74l-26,20.34c-1,2-1.69,3.49-2.14,4.5L320,165.92C319.13,164.54,318.31,163.14,317.56,161.74Z" transform="translate(-256.5 -101.1)"/><path class="cls-13" d="M327.65,176.36c-1.49-1.69-2.92-3.47-4.26-5.31l-32.06,17.49a50.1,50.1,0,0,0,5.09.69C306.67,185.22,317.49,181.42,327.65,176.36Z" transform="translate(-256.5 -101.1)"/><path class="cls-12" d="M296.43,189.23a73.34,73.34,0,0,0,15.33-.37c6.45-2.81,12.84-5.81,19.11-9.09-1.11-1.08-2.18-2.23-3.21-3.41C317.49,181.42,306.67,185.22,296.43,189.23Z" transform="translate(-256.5 -101.1)"/><path class="cls-12" d="M320,165.92,289.4,186.58c-.38.87-.58,1.36-.58,1.36a24.72,24.72,0,0,0,2.51.59L323.39,171C322.19,169.38,321,167.67,320,165.92Z" transform="translate(-256.5 -101.1)"/><path class="cls-9" d="M311.76,188.86c2.58-.32,5.33-.76,8.28-1.41a89.7,89.7,0,0,0,14.46-4.4c-1.25-1-2.46-2.13-3.64-3.28C324.59,183.05,318.21,186,311.76,188.86Z" transform="translate(-256.5 -101.1)"/><path class="cls-14" d="M338.23,155.44c-6.74-2-14.67-12.6-14.67-12.6a90.44,90.44,0,0,0-10.45,9c4,11.05,11.68,23.33,21.38,31.21,9.47-3.82,13.87-7.78,13.87-7.78C342.16,168.23,338.23,155.44,338.23,155.44Z" transform="translate(-256.5 -101.1)"/><polygon class="cls-12" points="78.51 60.29 74.83 60.51 72.65 57.51 70.82 61.56 65.81 62.54 70.76 64.91 70.52 70.31 74.6 66.18 78.51 66.69 76.63 63.16 78.51 60.29"/><polygon class="cls-12" points="86.32 70.29 82.75 70.68 80.8 68.02 78.82 71.85 73.92 73 78.59 74.94 78.08 79.93 82.24 75.92 86 76.19 84.35 73.03 86.32 70.29"/><polygon class="cls-12" points="70.93 49.19 67.36 49.58 65.41 46.92 63.43 50.75 58.53 51.9 63.2 53.84 62.69 58.83 66.85 54.81 70.61 55.09 68.96 51.93 70.93 49.19"/><polygon class="cls-12" points="40.92 31.9 37.67 35.9 31 36.15 35.34 40.81 31.92 46.73 40.34 43.15 48.25 47.06 46 39.98 50.59 36.23 43.42 35.81 40.92 31.9"/><path class="cls-15" d="M291.34,113.92a23.19,23.19,0,0,0,3.06-.08,1.77,1.77,0,0,1-1.34,1.18C292.09,115.12,291.34,113.92,291.34,113.92Z" transform="translate(-256.5 -101.1)"/><path class="cls-15" d="M302.13,113.6a21.31,21.31,0,0,1-2.93.19,1.72,1.72,0,0,0,1.38,1.05C301.52,114.86,302.13,113.6,302.13,113.6Z" transform="translate(-256.5 -101.1)"/><path class="cls-5" d="M304.47,109.78c-.08-.49-.22,1.78.39,1.78a2,2,0,0,0,1.5-1.11c.06-.33,1.51-.67,1.9-1.17s-.06-.61-.06-.61,1.17-.61,1.11-1.17-.33-.45-.33-.45.61-.73.5-1.23-.89.45-2,1-.61,1-1.12,1.9S304.52,110.12,304.47,109.78Z" transform="translate(-256.5 -101.1)"/></svg>