<svg id="art" xmlns="http://www.w3.org/2000/svg" viewBox="0 0 115.07 141.3"><defs><style>.cls-1{fill:#eb9e3c;}.cls-2{fill:#6e271e;}.cls-3{fill:#120e0d;}.cls-4{fill:#cc423f;}.cls-5{fill:#ca9729;}.cls-6{fill:#f4c23a;}.cls-7{fill:#de9a72;}.cls-8{fill:#c46a42;}.cls-9{fill:#324170;}.cls-10{fill:#0a101b;}.cls-11{fill:#385f9a;}.cls-12{fill:#e0ac7a;}.cls-13{fill:#778578;}.cls-14{fill:#a2b29d;}.cls-15{fill:#4b332c;}</style></defs><title>GWR-Superheroes-THE-FLASH</title><path class="cls-1" d="M232.29,210.21c.26-1.11,1.71-3.34,2.31-3.51a3.42,3.42,0,0,1,1.71.34s.77-1.37,1.88-1.37,1.11.51,1.11.51,1.88-1.37,2.91-1.28-1.71,1.63-2.74,2.74a21.42,21.42,0,0,0-2.05,2.31c-.09.26-1,2.4-1,2.4Z" transform="translate(-211.66 -125.93)"/><path class="cls-1" d="M296.24,131.68s2-1.33,2-2.54l.9,1.07s1.1-.52.84-2.31a3.51,3.51,0,0,1-.35,4.09,14.35,14.35,0,0,1-2.4,2.64Z" transform="translate(-211.66 -125.93)"/><path class="cls-2" d="M240.56,219.32c-1.41,2.91-4.62,6.6-6.38,5s-1.27-4.28-1.18-4.72.62-3.43,1.23-4,4.4-3.08,4.4-3.08a3.84,3.84,0,0,1,2.2.53c.79.62.44,2.64.35,2.9S240.56,219.32,240.56,219.32Z" transform="translate(-211.66 -125.93)"/><path class="cls-3" d="M276.22,136.15s9.94-2.49,13.66-2,11.06,3.9,11,4.14c-.37,1-6.21.69-11.9.21a98.27,98.27,0,0,1-12.09-1.74C276,136.55,275.49,136.49,276.22,136.15Z" transform="translate(-211.66 -125.93)"/><path class="cls-2" d="M299.81,153.18l-.17-.16c-1.36-1.27-2.36-2.79-3.61-3.47s-10-5-10-5c-1-.41-2.07-.88-3.19-1.32a24.21,24.21,0,0,0,3.71,8.32C289.94,157.06,295.22,156,299.81,153.18Z" transform="translate(-211.66 -125.93)"/><path class="cls-2" d="M275.29,178.63c-2.14,2.7-4,5.37-5.85,6.59,4.3.74,7.74,1.62,7.84,1.52.87-.91,2.9-.73,3.65-1.9s1.8-6.79,2.67-7.45c.47-.36,1.57-1.4,2.7-2.46.48-1.26.87-2.55,1.38-3.8.07-.17.13-.34.19-.51C285.06,174.43,280.25,176.56,275.29,178.63Z" transform="translate(-211.66 -125.93)"/><path class="cls-4" d="M316.92,171.32c-.55-1.62-1.35-3.46-2.51-4.06s-1.52-2.54-2.57-2.55-.45-1.1-2-1.46a8.24,8.24,0,0,1-3.64-1.58c-.88-.77-1.24-1.73-2.18-2.35a3.46,3.46,0,0,1-1.66-2.38,9,9,0,0,0-2.56-3.74c-4.6,2.81-9.87,3.88-13.29-1.58a24.21,24.21,0,0,1-3.71-8.32,18.13,18.13,0,0,0-5.51-1.54c-1.88,0-7.49.77-8.55.68s-4.91-1.35-7.54-.06a30.4,30.4,0,0,0-4.65,2.85,8.28,8.28,0,0,0-2.75.62c-.87.51-4.79.52-6.2,2.12s-2,1-3.15,1.48-1.91.8-3.23,1.41-2.38.6-4.12,1.61c-.87.51-3.16,3.74-4.05,5.15s-3.4,5.86-4.15,7.19-2.13,4.5-1.76,4.41a57.19,57.19,0,0,1,5.79,2.2,37.84,37.84,0,0,0,4.57-4.13A8.1,8.1,0,0,1,239,166a3.91,3.91,0,0,0,.34-1.44,13.68,13.68,0,0,0-.26-3.56,9.42,9.42,0,0,1-.57-2.64,6.65,6.65,0,0,0,2.59,1.28c1,.32,2.29.25,2.57-1a2.63,2.63,0,0,0-.31-1.56,6.48,6.48,0,0,1-.58-2.06c0-.72.2-2.31,1.29-1.84a3.58,3.58,0,0,1,1.13,1.15,10,10,0,0,0,2,2,5.56,5.56,0,0,0,3,1c.63,0,1.23-.12,1.86,0,.36,0,1,.29,1.33.18.8-.25-1-2.39-1.18-2.73a3.66,3.66,0,0,1-.62-1.51,8.18,8.18,0,0,0-.16-1.06,6.4,6.4,0,0,1,.54.73,13.46,13.46,0,0,0,1.38,1.32c.66.58,1.45.93,2.16,1.44a12.88,12.88,0,0,0,1.93,1.18,13.54,13.54,0,0,0,4.39,1.46c.86.08,1.73.13,2.59.14a2.47,2.47,0,0,1,1.19.17c0,.27-.57.54-.78.67a16.14,16.14,0,0,0-1.37,1.08,8.77,8.77,0,0,1-2.53,1.4c0,.16.06.25.13.39a3.29,3.29,0,0,1,.3.85c.34,1.54.61,3.1.94,4.64a11.21,11.21,0,0,0,3,5,11.35,11.35,0,0,0,2.53,2.14c-2.06-1.27-4.55-1.86-6.3-3.6a10.71,10.71,0,0,1-1.82-2.39c-.15-.27-.47-.87-.86-.69a7.8,7.8,0,0,0,.08,1.42,13.9,13.9,0,0,0,.85,4,11.51,11.51,0,0,0,3,4.7A18,18,0,0,0,265,180c.07,0,.07.18,0,.17a12.84,12.84,0,0,1-1.66-.23,19.21,19.21,0,0,1-5.33-2.52c-1.35-.82-2.72-1.58-4.09-2.36a5.52,5.52,0,0,0-.48,3.48,25.16,25.16,0,0,0,3.14,4.4s4,.73,8.45,1.52l0,0c-2.12-1.87,5.62-6.36,8.36-10.54l-6,.37c3.87-2.24,7.61-6.48,11.48-8.73a18.83,18.83,0,0,1-8.11-1.5c5.21-3,11.27-5.3,16.66-8.17a58.05,58.05,0,0,1-10.67,7.8l9-.56a44.42,44.42,0,0,1-10.48,8.67l9-.56c-3.46,1-6.32,4.25-8.85,7.45,5-2.06,9.77-4.2,12.58-8a6.3,6.3,0,0,0,.38-2c0-1.07-.21-2.13-.27-3.19a30.05,30.05,0,0,1,0-3.19c0-.48,0-1,.1-1.45a2.31,2.31,0,0,1,.15-.8,11.19,11.19,0,0,0,1.36,4.65c.29.59.72,1.56,1.49,1.13a6.09,6.09,0,0,0,1.53-1.52c.56-.69,1.14-1.38,1.64-2.11a7.35,7.35,0,0,0,1-2.36,3.68,3.68,0,0,1,.37-1.25,11,11,0,0,1,.65,4.66,15.17,15.17,0,0,0-.24,2.37c.06.79.69,1,1.39,1.09a30.51,30.51,0,0,0,3.8.11,39.06,39.06,0,0,1,4.35.22c.39,0,1.66.07,1.91.47s-.48.51-.75.59c-.9.26-1.84.41-2.76.59-.49.1-1,.2-1.45.33-.28.08-.83.16-1,.4-.51.63,2.4,1.22,2.82,1.39,1,.38.35.59.22,1.27s.71.85,1.14,1.2h0c.7.14.48,2.85,2.61,3.89a21.8,21.8,0,0,0,6.07,1.81,5.6,5.6,0,0,0,2.83-.63C317.55,177.91,317.47,172.94,316.92,171.32Z" transform="translate(-211.66 -125.93)"/><path class="cls-5" d="M264.92,184.4l0,0,4.49.78c1.81-1.22,3.7-3.86,5.82-6.55a41.88,41.88,0,0,1-8.11,1.45C265.21,181.94,263.88,183.48,264.92,184.4Z" transform="translate(-211.66 -125.93)"/><path class="cls-6" d="M285.64,163.07l-9,.56a58.05,58.05,0,0,0,10.67-7.8c-5.39,2.87-11.45,5.14-16.66,8.17a18.83,18.83,0,0,0,8.11,1.5c-3.87,2.24-7.61,6.48-11.48,8.73l6-.37c-1.4,2.14-4.11,4.35-6.14,6.26a41.88,41.88,0,0,0,8.11-1.45c2.53-3.21,5.4-6.49,8.88-7.49l-9,.56A44.42,44.42,0,0,0,285.64,163.07Z" transform="translate(-211.66 -125.93)"/><path class="cls-2" d="M307.49,167.46c-.25-.4-1.52-.42-1.91-.47a39.06,39.06,0,0,0-4.35-.22,30.51,30.51,0,0,1-3.8-.11c-.71-.1-1.33-.3-1.39-1.09a15.17,15.17,0,0,1,.24-2.37,11,11,0,0,0-.65-4.66,3.68,3.68,0,0,0-.37,1.25,7.35,7.35,0,0,1-1,2.36c-.5.73-1.08,1.43-1.64,2.11a6.09,6.09,0,0,1-1.53,1.52c-.77.44-1.21-.54-1.49-1.13a11.19,11.19,0,0,1-1.36-4.65,2.31,2.31,0,0,0-.15.8c-.07.48-.08,1-.1,1.45a30.05,30.05,0,0,0,0,3.19c.06,1.07.29,2.12.27,3.19a6.81,6.81,0,0,1-.57,2.48c-.51,1.25-.9,2.54-1.38,3.8.93-.87,1.9-1.76,2.58-2.32a14.28,14.28,0,0,0,3.06-3c.62-.94.77-2.16,1.71-1.61a29,29,0,0,0,4.39,2.67c1.46.51,3.51,2,4.57,2s2.29.53,3.05.56h0c-.43-.35-1.28-.44-1.14-1.2s.74-.89-.22-1.27c-.42-.17-3.33-.76-2.82-1.39.2-.24.75-.33,1-.4.48-.13,1-.23,1.45-.33.92-.19,1.85-.33,2.76-.59C307,168,307.73,167.83,307.49,167.46Z" transform="translate(-211.66 -125.93)"/><path class="cls-2" d="M265.26,180.17l-.3-.2a18,18,0,0,1-2.15-1.68,11.51,11.51,0,0,1-3-4.7,13.9,13.9,0,0,1-.85-4,7.8,7.8,0,0,1-.08-1.42c.39-.17.71.42.86.69a10.71,10.71,0,0,0,1.82,2.39c1.76,1.74,4.24,2.33,6.3,3.6a11.35,11.35,0,0,1-2.53-2.14,11.21,11.21,0,0,1-3-5c-.33-1.54-.6-3.1-.94-4.64a3.29,3.29,0,0,0-.3-.85c-.07-.13-.18-.22-.13-.39a8.77,8.77,0,0,0,2.53-1.4,16.14,16.14,0,0,1,1.37-1.08c.21-.13.74-.4.78-.67a2.47,2.47,0,0,0-1.19-.17c-.86,0-1.73-.06-2.59-.14a13.54,13.54,0,0,1-4.39-1.46,12.88,12.88,0,0,1-1.93-1.18c-.71-.51-1.5-.86-2.16-1.44A13.46,13.46,0,0,1,252,152.9a6.4,6.4,0,0,0-.54-.73,8.18,8.18,0,0,1,.16,1.06,3.66,3.66,0,0,0,.62,1.51c.22.34,2,2.48,1.18,2.73-.35.11-1-.14-1.33-.18-.63-.08-1.24.06-1.86,0a5.56,5.56,0,0,1-3-1,10,10,0,0,1-2-2,3.58,3.58,0,0,0-1.13-1.15c-1.09-.48-1.34,1.12-1.29,1.84a6.48,6.48,0,0,0,.58,2.06,2.63,2.63,0,0,1,.31,1.56c-.28,1.23-1.58,1.31-2.57,1a6.65,6.65,0,0,1-2.59-1.28,9.42,9.42,0,0,0,.57,2.64,13.68,13.68,0,0,1,.26,3.56A3.91,3.91,0,0,1,239,166c1.49-1.08,3.31-1.92,4.25-2.75,1.29-1.14,2.06-.81,2.4-1.43s.31.13,1.19-.3a5.09,5.09,0,0,0,1.51-1.15c.36-.32.65-.42,1.93-.5s5,.07,5,.07-.08,6,.06,8.29.34,3-.47,4.63c-.31.62-.67,1.4-1,2.19,1.37.78,2.74,1.54,4.09,2.36a19.21,19.21,0,0,0,5.33,2.52,12.84,12.84,0,0,0,1.66.23Z" transform="translate(-211.66 -125.93)"/><path class="cls-7" d="M284.19,140.42a13.51,13.51,0,0,1-3.52-2.29c-.18.93-.37,1.77-.43,2.15-.11.68-3.26,2.16-4.21,2.6s-.07,4.9,2,7,3.41,3.86,6.87,3.79a4,4,0,0,0,2.24-.66C284,149.63,282.19,145.59,284.19,140.42Z" transform="translate(-211.66 -125.93)"/><path class="cls-8" d="M288.85,150.3l3.73-6.71-.57-9.24-11,1.51c-.06.68-.2,1.51-.35,2.28a13.51,13.51,0,0,0,3.52,2.29c.11-.27.21-.55.34-.83-.13.28-.24.55-.34.83l.34.17-.34-.17c-2,5.17-.2,9.2,3,12.55A4.29,4.29,0,0,0,288.85,150.3Z" transform="translate(-211.66 -125.93)"/><path class="cls-9" d="M248.48,217s-2.48-1.05-5.12-1.88a20.46,20.46,0,0,1-4.66-2,11,11,0,0,0-4.29-1.2c-2.26-.3-5.18,6.62-5.18,6.62s5.63,4.47,7.28,6.2,6.82,4.68,8.63,5.66,3.26,2.05,5.07,2.05a12.8,12.8,0,0,0,5.87-2.26,46.63,46.63,0,0,0,4.4-5.35c-4-5.16-7.93-10.26-11.52-15.44A51.12,51.12,0,0,0,248.48,217Z" transform="translate(-211.66 -125.93)"/><path class="cls-9" d="M273.53,191.6c-6-2-11-6-18-7,6.95.87,14.65,1.74,21.14,4.58a23.92,23.92,0,0,0,1.22-3l-1.43-.9c-3.91-1.5-8.8-2.48-12.19-3.39s-8-2-8.5-2.18-2.48-.75-2.48-.75-1.88,6.92-2.86,9.25a23.52,23.52,0,0,0-.86,2.45,61.08,61.08,0,0,0,12.25,10.24C265.22,197.31,269.59,194.88,273.53,191.6Z" transform="translate(-211.66 -125.93)"/><path class="cls-10" d="M255.53,184.6c7,1,12,5,18,7-3.94,3.29-8.31,5.71-11.7,9.26a86.7,86.7,0,0,0,8.12,4.6,8.22,8.22,0,0,1,.91-1.23,15.42,15.42,0,0,0,3.5-6.89c.45-2.33,1.2-3.39,1.35-5s-.15-1.88.53-2.56a2.9,2.9,0,0,0,.43-.64C270.18,186.34,262.48,185.47,255.53,184.6Z" transform="translate(-211.66 -125.93)"/><path class="cls-10" d="M249.58,190.61c-2.41,8.15-.27,16.29-.55,18.29,0,.18,0,.35-.07.52,3.59,5.18,7.56,10.28,11.52,15.44l.22-.3c.6-.83,3.17-4.17,5.67-11.5a46.12,46.12,0,0,1,3.59-7.61C262.36,201.66,255.37,197,249.58,190.61Z" transform="translate(-211.66 -125.93)"/><path class="cls-2" d="M228.53,208.6c-3,1-2,5-4,6,0-2-1-4-1-6-2,3-2,8-5,9-2.22,1.27-4.64,2.43-6.84,3.72a1.88,1.88,0,0,0,.4,1.13c1.8.17,4.74-2.81,4.74-2.81a26.13,26.13,0,0,1,3.1-1.48,21.9,21.9,0,0,1,3.91-1.62c1.11-.17,1.09.52,1.61,1.2s1.88.6,2.83,1c.78.36,4.5,4.12,5.75,5.39-.92-1.2-.78-3.32-.18-5.34a7.39,7.39,0,0,0-1.31-.22C228.53,216.6,226.53,213.6,228.53,208.6Z" transform="translate(-211.66 -125.93)"/><path class="cls-4" d="M234.43,224.59l-.42-.43A2.32,2.32,0,0,0,234.43,224.59Z" transform="translate(-211.66 -125.93)"/><path class="cls-4" d="M240.25,212.77s-5.14-2.4-6-2.83-1.11-1.2-2-1.71-.94.34-1.54-.17-2.48-3.77-4-4.88-4.45-.6-5.05.77-2,4.45-3.34,5.65-4.49,3.64-5.56,6.42a11.73,11.73,0,0,0-1.08,5.29c2.21-1.29,4.62-2.46,6.84-3.72,3-1,3-6,5-9,0,2,1,4,1,6,2-1,1-5,4-6-2,5,0,8,4,10a7.39,7.39,0,0,1,1.31.22,14.17,14.17,0,0,1,1.71-3.74A4.72,4.72,0,0,1,240.25,212.77Z" transform="translate(-211.66 -125.93)"/><path class="cls-11" d="M285.53,215.6c4,2,2,10,3,15a81.74,81.74,0,0,0,2.54,9.18,84.5,84.5,0,0,1,4.8,7.81c-.07.08,7-4.91,7-4.91a88.61,88.61,0,0,1-3.83-9.66c-1.38-4.47-3.54-9.08-3.93-10.63s-1.73-5.64-1.73-7a10.53,10.53,0,0,0-2-4.86c-.58-.47-2.5-1.4-3.4-2.06s-6.43-6.35-10.87-9.06-12.31-5.5-12.31-5.5c1.65-.1,4.27-.38,2-.9a77.08,77.08,0,0,0-11.72-.64c-1.73.11,3.11-2.07,7-2.19s-10.13-4.35-11.36-2.62c-2,2.83-3.92,8.84-2.17,11.83l.39.66C257.79,210,272.88,212,285.53,215.6Z" transform="translate(-211.66 -125.93)"/><path class="cls-9" d="M288.53,230.6c-1-5,1-13-3-15-12.65-3.61-27.74-5.6-36.44-15.53,1.86,3.12,5.23,8.32,10.68,11.19,5.85,3.08,16.72,7.07,19.29,7.1a6.92,6.92,0,0,1,2.49,1.32c.93.88,1,4.14,1.62,8.15,1.07,6.54,4.63,8,6.62,10.27.37.42.81,1,1.28,1.68A81.74,81.74,0,0,1,288.53,230.6Z" transform="translate(-211.66 -125.93)"/><path class="cls-2" d="M312.27,254.62c-1.88-.63-3-1.12-3.6-1.81s1.2-1.57-.88-4.75a5.74,5.74,0,0,1-1-3.15c0-1.06-1.48-7.48-2.43-7.23a23.72,23.72,0,0,0-4,1.43,22.21,22.21,0,0,1,5.13,17.48c.9,0,1.82.06,2.73.13l.27-.13c0,.05,0,.1,0,.15,3.08.28,6.22.85,9.14.85C316.32,257.11,314,255.2,312.27,254.62Z" transform="translate(-211.66 -125.93)"/><path class="cls-4" d="M308.26,256.73l.25,0c0-.05,0-.1,0-.15Z" transform="translate(-211.66 -125.93)"/><path class="cls-4" d="M308.26,256.73c-.92-.08-1.83-.13-2.73-.13a22.21,22.21,0,0,0-5.13-17.48,18.16,18.16,0,0,0-2.83,1.63c-1.92,1.37-4.92,4.23-4.13,6s3.68,4.68,4.3,6.28a23.26,23.26,0,0,0,2.06,3.27C302.61,257.34,305.44,258.27,308.26,256.73Z" transform="translate(-211.66 -125.93)"/><path class="cls-2" d="M306.53,263.6c-1-2.92,1.84-4.9,2-6.85l-.25,0c-2.83,1.54-5.65.61-8.48-.47a12.77,12.77,0,0,1,2,3.94c.47,2.29,1.52,5.74,2.69,6.75s3.38-.89,5.68-2,3.21.26,8.79-1.31c.64-.18,1.26-.39,1.86-.6C316.28,260.66,311.08,260.18,306.53,263.6Z" transform="translate(-211.66 -125.93)"/><path class="cls-4" d="M324.69,258.29a33.62,33.62,0,0,1-6.64-.58,2.23,2.23,0,0,1-.39-.12c-2.92,0-6.06-.57-9.14-.85-.14,2-3,3.92-2,6.85,4.55-3.42,9.75-2.94,14.31-.61a17.68,17.68,0,0,0,5.76-3.08C326.95,259.57,326.64,258.09,324.69,258.29Z" transform="translate(-211.66 -125.93)"/><path class="cls-6" d="M305.82,255.84c-1.16-.24-2.11-2.8-4.07-2.74a41.59,41.59,0,0,1-9-1.08c-2.34-.66-5.09-1.58-4.48-.88A26.44,26.44,0,0,0,291,253.4s-.72,1.74,2.56,2c0,0-.14,1.53,2.58,1.54s3.79.73,4.53.65,1.86-1,2.35-.7,1.5,1.28,2.09,1.14S309,256.49,305.82,255.84Z" transform="translate(-211.66 -125.93)"/><path class="cls-12" d="M231.33,168.42a3.73,3.73,0,0,0-3.27-.4c-1.26.38-1.76,3.2-2.58,4.53a32.4,32.4,0,0,0-2.07,4.35,2.54,2.54,0,0,0-.12,1.74s-.7.8-.29,1.37a3.33,3.33,0,0,1,.51.95,9,9,0,0,0,1.36,1.2c.71.48,1.75,1.47,2.43,1.51s3-2.07,3-2.07.7,1.54,1.95,1c.44-.19.39-2.29.57-2.9a6.81,6.81,0,0,0,.17-3.4,18.25,18.25,0,0,1-.66-3.35,6.87,6.87,0,0,1,.46-2.36A3.68,3.68,0,0,0,231.33,168.42Z" transform="translate(-211.66 -125.93)"/><path class="cls-12" d="M308.3,176.54a10.63,10.63,0,0,0-2.06,2c-.35.4-.33,3.19-.37,3.72s1.38,1.65,1.42,2.25.65.71,1.25.68.78-2,.78-2a3.45,3.45,0,0,0,1.28,1.13,1.51,1.51,0,0,0,1.19-.22s1.26.9,2,.4a1.51,1.51,0,0,0,1.45.36c.81-.28,2-2.46,2.37-3.09a7.77,7.77,0,0,0,.64-3c0-.75-.3-1.11-.68-1.16s-1-1.07-1.58-1.11-1.42-1-2.25-1.07a18.21,18.21,0,0,0-2.75-.58,3.4,3.4,0,0,0-2,1C308.73,176.14,308.3,176.54,308.3,176.54Z" transform="translate(-211.66 -125.93)"/><path class="cls-3" d="M279.11,135.52s.7,4,.73,4.48a3.8,3.8,0,0,0,.29,1.11l1.72-2.67s3.86,1.42,3.84,1.19,3.31-7.37,3-7.27Z" transform="translate(-211.66 -125.93)"/><path class="cls-12" d="M294,140.77a12.72,12.72,0,0,0-1.51,1,28.79,28.79,0,0,1-3-2l-3.87-2.65-.1.19c-.39.75-.75,1.57-.75,1.57l-.81-.85-.63-1.62s-2.16-.85-2.39.37.62,2.75.91,3.79a1.27,1.27,0,0,0,1.27,1l1,3.93c.3,1.19,3.54,3.55,4.86,4.3a4.94,4.94,0,0,0,4.07,0,3.14,3.14,0,0,0,.63-1c.34-.73.66-1.67.9-2.33a15.34,15.34,0,0,1,1.05-2,18.84,18.84,0,0,1-1.09-1.79S294,140.88,294,140.77Z" transform="translate(-211.66 -125.93)"/><path class="cls-8" d="M296.38,141.06a1.74,1.74,0,0,1,.07-.73l0-.12c.12-.37.5-1.58.66-2l.19-.54-.64-1.84-.78-.45c-1.19-.39-2.71-.9-2.84-1a36.65,36.65,0,0,0-4.55-.77c-.16,0-1.16.42-2.05.77a3.82,3.82,0,0,1-.31,1.92,5.38,5.38,0,0,0-.56.89l3.87,2.65a28.79,28.79,0,0,0,3,2,12.72,12.72,0,0,1,1.51-1c0,.11.5,2,.5,2a18.84,18.84,0,0,0,1.09,1.79,6,6,0,0,0,.82-1.82C296.47,142.44,296.41,141.84,296.38,141.06Z" transform="translate(-211.66 -125.93)"/><path class="cls-13" d="M289.86,126.57c-.82,0-1.61-.05-2.36,0,1.25,1.64,1.55,3.94,1,7.06a48.07,48.07,0,0,1,11.38,3.64,14.21,14.21,0,0,1-1.69-2.37C297.61,133.62,298.33,126.95,289.86,126.57Z" transform="translate(-211.66 -125.93)"/><path class="cls-14" d="M287.5,126.54c-3.41.09-6,1-7.14,4.53-.95,3.07-4.23,5.09-4.23,5.09a44.76,44.76,0,0,1,14.07-.35c8.35,1,10.63,2.51,10.63,2.51s-.42-.47-.94-1.09a48.07,48.07,0,0,0-11.38-3.64C289,130.48,288.75,128.17,287.5,126.54Z" transform="translate(-211.66 -125.93)"/><path class="cls-6" d="M286.43,134c1.18-.38-2-1.24-1.65-2.31s-.32-2.69-2.46-3.16a40.75,40.75,0,0,1-6.34-2.55l1.24,3-2.17-1a5.31,5.31,0,0,0,2.62,3.38c2.18,1.15,4.46,1.38,5.32,1.86s-.09,1,.75,1.16A6.31,6.31,0,0,0,286.43,134Z" transform="translate(-211.66 -125.93)"/><path class="cls-15" d="M290.66,137.59c-.74-.18-.51-.88-1.36-.77a12.09,12.09,0,0,1-2,0,9.48,9.48,0,0,1,2.65-.71c.73.07,1.2.84,1.86.8" transform="translate(-211.66 -125.93)"/><path class="cls-15" d="M297,137.92s-.86-.8-1.33-.8-.84.72-1.24.61-.25.75.26.64.53-.86,1-.67A4.55,4.55,0,0,0,297,137.92Z" transform="translate(-211.66 -125.93)"/><path class="cls-15" d="M290.66,137.56a4.35,4.35,0,0,0-1.25-.23c-.27.08-1.71.42-1.71.42a9.19,9.19,0,0,1,2.5.46c.61.34.57.68.57.68l1.93-2.28-1.93.57Z" transform="translate(-211.66 -125.93)"/><path class="cls-15" d="M294.07,137.45l.3,1.33s.8-.19,1.14.08a4.36,4.36,0,0,0,.76.46s0-.8-.38-1a5.62,5.62,0,0,0-.91-.3Z" transform="translate(-211.66 -125.93)"/></svg>