<svg id="art" xmlns="http://www.w3.org/2000/svg" viewBox="0 0 84.19 166.61"><defs><style>.cls-1{fill:#563834;}.cls-2{fill:#e5b673;}.cls-3{fill:#604d8f;}.cls-4{fill:#452551;}.cls-5{fill:#594953;}.cls-6{fill:#2c1d24;}.cls-7{fill:#c2776d;}.cls-8{fill:#6575ab;}.cls-9{fill:#b78b55;}.cls-10{fill:#a15f2a;}</style></defs><title>GWR-Superheroes-THE-PHANTOM</title><path class="cls-1" d="M315.1,163.8a6.29,6.29,0,0,1,6.56,3.18c2.12,4,2.54,9.1,3.39,12.28s-.64,4-2.33,3.81-5.72-4.45-5.72-4.45-1.7-7.2-1.91-8S315.1,163.8,315.1,163.8Z" transform="translate(-259.07 -94.46)"/><path class="cls-2" d="M265.67,178.47c.33.84,1.37,2.25,1.57,3s1,3,1.31,4.39-.05,2.73.61,4.7c.73,2.2.2,2.32.05,2.42-.33.22-.91.66-1.72-.3a11.2,11.2,0,0,1-1.82-3.38c-.2-.76-1,2.88-1,4s.3,3.23.3,3.23c.15,1.56-.91,1.77-1.11,1.67l-.56-.2s.15,1.16-.55,1.36a2.06,2.06,0,0,1-1.21-.15s-.71-1.46-.86-1.87-1-3.69-1.41-4.7a11.55,11.55,0,0,1-.1-4.19c.1-1.21-.15-2.47,0-4.59s.15-5.2.55-5.7S264.85,176.42,265.67,178.47Z" transform="translate(-259.07 -94.46)"/><path class="cls-3" d="M277.58,214.41c2,1,3-1,4-1,0-4,7-9,1-13,9.41-8.3,10.84-21.81,7.72-34.59a1.84,1.84,0,0,0-.5-.36c-1.87-.76-4.65.56-7.88,5.1s-4,15.85-4.44,20.55-.2,10.45-.4,12.42-2.37,3.94-4.59,6.51c-1.87,2.17-2.88,7-3.15,10.64,2.79,2.1,5.94,3.74,9,4C280,221.82,279.06,218.12,277.58,214.41Z" transform="translate(-259.07 -94.46)"/><path class="cls-4" d="M290.3,165.83c3.13,12.78,1.69,26.29-7.72,34.59,6,4-1,9-1,13-1,0-2,2-4,1,1.48,3.7,2.41,7.41.76,10.3a9,9,0,0,0,3.19-.25c.66-1.51,1.16-2.73,1.35-3.36.55-1.82,1-6.82,1.92-7.83s2.37-5.35,3.43-6.56,2.47-6.11,2.67-7.22,3-6.82,3.68-8.38A99.31,99.31,0,0,0,298.69,179S292.67,168,290.3,165.83Z" transform="translate(-259.07 -94.46)"/><path class="cls-5" d="M274.15,223.56a24.28,24.28,0,0,1-4.82-2.88c-.05.67-.08,1.31-.08,1.88a94,94,0,0,1-1,11.43c-.71,4.56-1.46,6.79-2.06,7.73-.88,1.38-.39,2.16-.68,3.66,2.1-1.79,4.23-3.43,6.08-5C274.47,236.8,273.2,230,274.15,223.56Z" transform="translate(-259.07 -94.46)"/><path class="cls-6" d="M274.05,250.18a27.74,27.74,0,0,1-.25-5.66,40,40,0,0,1,1.62-6.11c.55-1.75,4.09-9.27,6.12-14a11.22,11.22,0,0,1-7.39-.9c-1,6.49.32,13.24-2.57,16.85-1.85,1.54-4,3.18-6.08,5v0c-.17.86-.51.77-1.29,2.58-1,2.32.45,3.15,1.56,5.17s.91,6.16,2.73,7.12,6.85,1,9.1.43c1.46-.35,1-2.84-1-4.76C275.48,254.78,274.25,251.09,274.05,250.18Z" transform="translate(-259.07 -94.46)"/><path class="cls-3" d="M326.58,194.41c-1-1-5,0-5,0-2.3-10-5.8-19.38-11.83-26.83-3.19,3.07-9.23,8.94-9.23,8.94s.75,5.19,1.5,6.25a51.66,51.66,0,0,1,3.87,5.94c.81,1.75,5.12,7.5,6,8.81s2,2.25,1.69,3.5a11.89,11.89,0,0,1-1.81,3.94,30.65,30.65,0,0,0-3,5.41A34.5,34.5,0,0,0,319,214.11a102,102,0,0,1,7.57-12.7A8.54,8.54,0,0,0,326.58,194.41Z" transform="translate(-259.07 -94.46)"/><path class="cls-4" d="M327.52,195.59c-1.27-2.74-1.75-6.06-2.25-7.87s-2.25-9-4.06-13.19a104.19,104.19,0,0,0-6.81-12.19c-.69-.94-2.75,3.44-2.75,3.44l-1.89,1.81c6,7.45,9.52,16.84,11.83,26.83,0,0,4-1,5,0a8.54,8.54,0,0,1,0,7,102,102,0,0,0-7.57,12.7c1,.19,2,.35,3,.45,1-2,1.83-3.81,2.32-5a25.63,25.63,0,0,1,2.75-5.37C328.39,202,328.33,197.34,327.52,195.59Z" transform="translate(-259.07 -94.46)"/><path class="cls-5" d="M314.35,212.86a34.86,34.86,0,0,1-5.61-2.49A22.22,22.22,0,0,0,307,219a37.47,37.47,0,0,1-2.64,14.19,48.06,48.06,0,0,1-2.46,5.14c2.5-3.44,5.17-6.75,7.73-10C313.78,224.91,313.08,218.47,314.35,212.86Z" transform="translate(-259.07 -94.46)"/><path class="cls-6" d="M321.48,245.67a26.06,26.06,0,0,1-5.58-4.64c-.87-1-3-5.19-2.75-6.62a38.84,38.84,0,0,1,3.37-9.25c1.08-1.87,3.54-6.61,5.49-10.59a34.25,34.25,0,0,1-7.66-1.7c-1.26,5.61-.56,12-4.76,15.55-2.56,3.2-5.23,6.51-7.73,10-.09.2-.21.41-.29.61-.62,1.56-.6,3.69,1,4.38,2.81,1.19,4.66.94,6.78,2.75s3.84,3.94,6.09,3.94,6.12.06,7.56-.5S323.48,246.73,321.48,245.67Z" transform="translate(-259.07 -94.46)"/><path class="cls-4" d="M289.94,116.73c-.45,1.52,2.28,3.89,3.54,5.16,5.95,6.8,10.11-2.75,13.35-8.71a16.85,16.85,0,0,0-3.33,1.29c-.67.17-7.08-.17-7.08-.17s-1.58-5.25-1.83-5.08-1.68.1-3.43.28C291.58,112.15,290.88,114.34,289.94,116.73Z" transform="translate(-259.07 -94.46)"/><path class="cls-7" d="M291.15,109.49c-2.26.23-4.81.72-4.91,1.89,0,.15,0,.31,0,.47,1.59,1.74,3.09,3.55,4.55,5.29A14.45,14.45,0,0,0,291.15,109.49Z" transform="translate(-259.07 -94.46)"/><path class="cls-3" d="M337.83,104.22c-1.67,0-3.83,1.75-3.83,1.75a3.65,3.65,0,0,1-.92,2.58c-1.08,1.33-3.25,4-3,6.08,0,0-.82-.14-2.25-.5a11.11,11.11,0,0,0-5.33-.75c-2.12.17-5.17,1.67-6.08,1.75s-4.33-2.58-7.75-2.25a14.42,14.42,0,0,0-1.84.3c-3.24,6-7.67,14.83-13.62,8-1.26-1.26-3.41-3.32-3.36-4.26.11-2.33-2.06-3.36-3.64-5.1a21.89,21.89,0,0,1-1,4.94c-.33.67-3.08,2.5-3.92,3.17s-1.25,1.33-1.83,1.5-5,.5-7,3.33-2.42,7.5-2.5,9-2.5,5.5-3.33,8.5-.92,5.5-1.25,6.42-3,4.67-4.25,9.17-1.58,11.5-1.67,13.83.08,6.67.08,6.67a10.78,10.78,0,0,1,3.58-.42l1.5.31a32.91,32.91,0,0,1,.92-4c.59-2.22,3.71-10.37,4.89-14.67a12.54,12.54,0,0,0-.3-7.71,17.24,17.24,0,0,0,8.6-8c1.48-3.41.89-4.74.15-5.93s3.71.15,6.37,1.48,6.36.42,10.23-.74c3-.89.3,1.48-2.52,3.26s-7.26,3.7-6.37,5c.49.74-.11,1.89-.89,2.94a20.41,20.41,0,0,1,1.34,5c.08,1.75,13.67,4.83,15.17,4.42.9-.25,3.36-2.66,5.19-4.55l.24-3.49s.74-5.19,1-7.41.3-4.15-1.33-4.74-3.56-1.78-1.63-2.07a10.23,10.23,0,0,0,5.63-3.11c1.48-1.63,1.93-5.63,1.48-6.37s4.59-4.59,6.08-5.48-.89,1.93,2.52,1.93,8.3-.15,9.34-4.15c0,0,4.59,1,5.78-3.56a111.5,111.5,0,0,0,2-12A2.52,2.52,0,0,0,337.83,104.22Z" transform="translate(-259.07 -94.46)"/><path class="cls-4" d="M340.42,105.8a3.59,3.59,0,0,0-1.84-1.46,111.5,111.5,0,0,1-2,12c-1.19,4.59-5.78,3.56-5.78,3.56-1,4-5.93,4.15-9.34,4.15s-1-2.82-2.52-1.93-6.52,4.74-6.08,5.48,0,4.74-1.48,6.37a10.23,10.23,0,0,1-5.63,3.11c-1.93.3,0,1.48,1.63,2.07s1.63,2.52,1.33,4.74-1,7.41-1,7.41l-.24,3.49c1.21-1.26,2.15-2.28,2.15-2.28s2.92-6.75,3.58-9.08.25-7.17.33-8,1.08-4,.92-6.08a6,6,0,0,1,.5-3.25s6.26.62,10.33-.25a65.26,65.26,0,0,1,10.33-1.42c.67,0,1.33-.83,1.75-1.75s2.17-4.33,2.08-7.17A82,82,0,0,1,340.42,105.8Z" transform="translate(-259.07 -94.46)"/><path class="cls-4" d="M286.63,147c-.89-1.33,3.56-3.26,6.37-5s5.48-4.15,2.52-3.26c-3.86,1.16-7.56,2.08-10.23.74s-7.11-2.67-6.37-1.48,1.33,2.52-.15,5.93a17.24,17.24,0,0,1-8.6,8,12.54,12.54,0,0,1,.3,7.71c-1.19,4.3-4.3,12.45-4.89,14.67a32.91,32.91,0,0,0-.92,4l1,.19s1.83-7.25,2.58-9.17,4-6.58,4.25-10,.5-5.5.75-5.83a13.53,13.53,0,0,0,6-7.42,34.67,34.67,0,0,0,1.25-4.5s1.67,3.6,3.25,4.92a9.79,9.79,0,0,1,2,3.51C286.52,148.92,287.12,147.78,286.63,147Z" transform="translate(-259.07 -94.46)"/><path class="cls-6" d="M286.27,158.47s-.49.94-1.16,2.26a47.06,47.06,0,0,1,4.79-2.46Z" transform="translate(-259.07 -94.46)"/><path class="cls-6" d="M289.9,158.26a47.06,47.06,0,0,0-4.79,2.46c-.51,1-1.12,2.23-1.68,3.43A58.48,58.48,0,0,1,294.88,158Z" transform="translate(-259.07 -94.46)"/><path class="cls-3" d="M294.88,158a58.48,58.48,0,0,0-11.45,6.17,40.31,40.31,0,0,0-1.65,3.87l-.22.68a87.34,87.34,0,0,1,18.57-11Z" transform="translate(-259.07 -94.46)"/><path class="cls-6" d="M300.12,157.7a87.34,87.34,0,0,0-18.57,11c-.46,1.47-1,3.27-1.32,4.67,8.16-5.68,16-12.1,25.21-16Z" transform="translate(-259.07 -94.46)"/><path class="cls-3" d="M305.44,157.4c-9.23,3.88-17.05,10.3-25.21,16-.34,1.31-.58,2.27-.58,2.27a11.33,11.33,0,0,1,5.84-1.8c8.17-6.51,16.86-12.5,26.46-16.81Z" transform="translate(-259.07 -94.46)"/><path class="cls-6" d="M313.57,159.15c-.93-1.47-1.43-2.12-1.43-2.12h-.2c-9.6,4.31-18.29,10.3-26.46,16.81a12.2,12.2,0,0,1,4.47.7A173.91,173.91,0,0,1,313.57,159.15Z" transform="translate(-259.07 -94.46)"/><path class="cls-6" d="M316.51,164.32c-.42-.86-.86-1.72-1.3-2.48l-.13-.22c-7.84,3.9-14.91,9.12-21.78,14.48a15.11,15.11,0,0,1,3.1,2.42C302.88,173.46,309.4,168.33,316.51,164.32Z" transform="translate(-259.07 -94.46)"/><path class="cls-3" d="M316.51,164.32c-7.11,4-13.63,9.13-20.1,14.2a9.23,9.23,0,0,1,1.74,2.32,2.54,2.54,0,0,0,.69.29,148.42,148.42,0,0,1,18.83-14.27C317.31,166.05,316.92,165.18,316.51,164.32Z" transform="translate(-259.07 -94.46)"/><path class="cls-6" d="M298.83,181.13a4.41,4.41,0,0,0,2.5-.1s6.06-6.87,10.88-8.75,6.94-1.75,6.94-1.75-.6-1.63-1.48-3.67A148.42,148.42,0,0,0,298.83,181.13Z" transform="translate(-259.07 -94.46)"/><path class="cls-3" d="M293.3,176.1c6.87-5.36,13.93-10.58,21.78-14.48-.59-1-1.09-1.82-1.51-2.48A173.91,173.91,0,0,0,290,174.55l.31.1A19.16,19.16,0,0,1,293.3,176.1Z" transform="translate(-259.07 -94.46)"/><path class="cls-6" d="M285.58,150s9.69.88,16.44.06,9.75-2.5,9.75-2.5l.38,9.5s-3.19,2.81-10.5,3.25A69.82,69.82,0,0,1,286,159Z" transform="translate(-259.07 -94.46)"/><path class="cls-8" d="M297.83,151.84a31.36,31.36,0,0,0,4.88-.19c2.56-.31,4.19-.62,4.19-.62l-4,7.37Z" transform="translate(-259.07 -94.46)"/><path class="cls-2" d="M334,106.72s1.31-.06,2.88-.06a13.25,13.25,0,0,1,3.31.44,10,10,0,0,1,.81-.94,4.3,4.3,0,0,0,1.38-2,6.18,6.18,0,0,0,.18-1.1,57,57,0,0,0-9.72,2.29A8.82,8.82,0,0,0,334,106.72Z" transform="translate(-259.07 -94.46)"/><path class="cls-9" d="M342.58,100.4a2.57,2.57,0,0,0-1.06-1.69c-.44-.19-1.31-1.25-2.12-1.56a15.12,15.12,0,0,0-4.94-.75c-1.94.06-1.37,1.25-2.06,2.62a6.34,6.34,0,0,0-.5,4.12,4.88,4.88,0,0,0,.9,2.19,57,57,0,0,1,9.72-2.29C342.61,102,342.58,100.76,342.58,100.4Z" transform="translate(-259.07 -94.46)"/><path class="cls-2" d="M339.33,102.65c0,.91-1.37,1.25-2.87,1.19a11,11,0,0,0-3.12.13c-.62.19-1.25.75-1.5-.5s-.37-2.69-.06-3,1.87.25,2.62.13a7.13,7.13,0,0,1,2.75.5C337.89,101.34,339.39,101.28,339.33,102.65Z" transform="translate(-259.07 -94.46)"/><path class="cls-2" d="M342.63,97.29c-.69-.19-.79,0-1.3-.15s.1-.87-.79-1.11-1.13.49-1.65.36-.2-1.42-1.37-1.55c-.88-.09-1.15.93-1.62.81s-.26-1.1-1.12-1.19c-1.09-.11-1.56,1.37-1.81,2.37a5.16,5.16,0,0,0,.13,2.87,2.36,2.36,0,0,0,2.06.31,1.49,1.49,0,0,0,.46-.88,2.21,2.21,0,0,0,.23.94,2.36,2.36,0,0,0,2.06.31,1.2,1.2,0,0,0,.38-.61,1.34,1.34,0,0,0,.08.55,2.07,2.07,0,0,0,1.74.56,1.67,1.67,0,0,0,.61-.95,2.38,2.38,0,0,0,0,1.07,1.8,1.8,0,0,0,1.51.48c.37-.18.57-.87.8-1.7S343.51,97.52,342.63,97.29Z" transform="translate(-259.07 -94.46)"/><path class="cls-2" d="M298.26,118.51s.43-.85.78-.93-.21-1.92-.21-1.92l-.71-.93a7.49,7.49,0,0,0,2.13-.07c.92-.21.07-1.78-.14-2.85s1.33-5.08,1.33-5.08a18.19,18.19,0,0,0-1.33-2.11c0,.11.2-1.93.39-3.91l-5.66-.69s-4.06,1.62-4.75,2.06-1.81,4.81-1.75,5.12.13,6.06.13,6.06.31,2.63,1.19,3.56a20.8,20.8,0,0,0,4.5,3.25,5.7,5.7,0,0,0,3.66.13A2.36,2.36,0,0,1,298.26,118.51Z" transform="translate(-259.07 -94.46)"/><path class="cls-9" d="M300,117.53c.25-.62,1.1-2,2-3.67a5.84,5.84,0,0,0,.71-3.52,6.18,6.18,0,0,1,.56-2.94,3.94,3.94,0,0,0,.13-2.69,20.88,20.88,0,0,0-.87-3.75l-3-.36c.92,1.69.36,4.62.15,5.64,0,.21-.31,1.34-.31,1.34s.56,3.16.77,4.23.78,2.35-.14,2.56-1.85.36-1.85.36l.36,1.35s.14,1.49-.21,1.57a3.41,3.41,0,0,0-1,.64,5,5,0,0,1-.07,2.06c.4-.1,1.38-.36,1.69-.49C300.06,119.38,299.77,118.15,300,117.53Z" transform="translate(-259.07 -94.46)"/><path class="cls-6" d="M289.77,106.53a13.49,13.49,0,0,1,4.75-.44c2.13.31,3.56,1.56,4.81,1.5s2.77-1.11,4.2-.74a3.86,3.86,0,0,0-.64,2.36,1.33,1.33,0,0,1-1.25,1.56,2.24,2.24,0,0,1-1.81-.56l-.44-2s-.94.5-2.5,1.44-2.44,1.06-3.75,0-2.31-2.25-2.75-2.44a1.63,1.63,0,0,0-1,0l.06-.62Z" transform="translate(-259.07 -94.46)"/><polygon class="cls-2" points="34.28 13.09 37.62 13.95 36.2 14.52 34.28 13.09"/><polygon class="cls-2" points="43.17 13.73 41.54 13.95 41.68 14.8 43.17 13.73"/><path class="cls-3" d="M295,95.32c-3.25,0-6.62,1.94-7.75,4.46-1.37,3.06-1.5,8.06-1.25,9.87a31.84,31.84,0,0,1-.12,5.94c-.12,2.06.44,2,.44,2l1.13.44s2.19,1,2.38,1.06a9.09,9.09,0,0,0,1.31,0,3.7,3.7,0,0,1-1.21-1.69,6.14,6.14,0,0,1-.42-2.62,21.93,21.93,0,0,0-.12-5.69,5.06,5.06,0,0,1,1.56-4.94,4.11,4.11,0,0,1,4.81,0,29.17,29.17,0,0,0,3.16,2.16C299.17,102,298.1,97.72,295,95.32Z" transform="translate(-259.07 -94.46)"/><path class="cls-4" d="M303.14,101A7.78,7.78,0,0,0,298,95.92c-.3-.11-.6-.23-.94-.32a7.45,7.45,0,0,0-2.06-.27c3.07,2.39,4.15,6.63,3.9,11a1.15,1.15,0,0,0,.34.09c1,.06,1.78-1,2.41-1.65l.16-.16c.94-.87,1.69.5,1.69.5A15.27,15.27,0,0,0,303.14,101Z" transform="translate(-259.07 -94.46)"/><path class="cls-10" d="M285.55,168.35a2,2,0,0,0-2.43-1.76c-1.84-.28-5.62-.83-6.63,6.63s-3.68,15.84-.92,16.21a5.46,5.46,0,0,0,1.7,0A77.6,77.6,0,0,1,284,168.2C284,167.73,284.65,167.92,285.55,168.35Z" transform="translate(-259.07 -94.46)"/><path class="cls-1" d="M284,168.2a77.6,77.6,0,0,0-6.73,21.19,5.26,5.26,0,0,0,3.45-2.16c.46-.83,3.93-13.84,4.05-14.19a9.7,9.7,0,0,0,.77-4.69C284.65,167.92,284,167.73,284,168.2Z" transform="translate(-259.07 -94.46)"/></svg>