<svg id="art" xmlns="http://www.w3.org/2000/svg" viewBox="0 0 140.79 204.25"><defs><style>.cls-1{fill:#de782d;}.cls-2{fill:#f4c23a;}.cls-3{fill:#f2b33b;}.cls-4{fill:#131916;}.cls-5{fill:#bd4028;}.cls-6{fill:#6e271e;}.cls-7{fill:#9a3426;}.cls-8{fill:#99d4e3;}.cls-9{fill:#368ea0;}.cls-10{fill:#e0ac7a;}.cls-11{fill:#da875e;}.cls-12{fill:#c46a42;}</style></defs><title>GWR-Superheroes-THE-COMET</title><path class="cls-1" d="M384,176.66c8.81,9.32,11.49,12.09,15.15,19.21.27.53-6-1.75-15.82-8.48-6.69-4.59-10.59-13.54-20.14-19.1-12.87-7.5-45.19,7.93-45.19,7.93,18.71-6.66,27-7.07,36.52-4.74,11.25,2.75,15.68,17.79,25.93,26,8.58,6.9,17.36,8.86,24.67,7.72C401.89,193.83,393.75,184,384,176.66Z" transform="translate(-279.5 -1.29)"/><path class="cls-2" d="M412.49,193.71c-1.9-3.68-22.56-26.11-32.44-37.13-5.09-5.68-15.23-18.53-23.87-29.65-1.27,2.83-2.34,5.24-2.44,5.58-.25.88-2.2,19.89-2.08,20.27s14.78,7.9,26.11,18.5c.74.69,5.05,4,6.12,5.21l.15.17c9.71,7.31,17.85,17.16,21.12,28.57a23.12,23.12,0,0,0,9.56-3.76C415.22,199.71,414.14,196.91,412.49,193.71Z" transform="translate(-279.5 -1.29)"/><path class="cls-2" d="M391.46,155.44c-13.2-9.5-30-51.53-30-51.53s-1.59,14.84-2.7,17.27c4.8,7,9.86,14.32,12.65,18.16,6.34,8.74,19.52,21.8,26.61,29.53S416.8,191.31,417.81,194a10.85,10.85,0,0,1,.68,4.19,16.47,16.47,0,0,0,1.37-1.77C423,191.59,408.37,167.62,391.46,155.44Z" transform="translate(-279.5 -1.29)"/><path class="cls-3" d="M417.81,194c-1-2.66-12.67-17.36-19.77-25.09s-19.93-21.22-25.62-30.4c-5.35-8.64-9.47-16.94-14.27-23.94-.81,1.78-1.12,10.5-2,12.4,8.63,11.12,18.77,24,23.87,29.65,9.88,11,30.54,33.46,32.44,37.13,1.65,3.19,2.72,6,2.23,7.76a20,20,0,0,0,3.77-3.32A10.85,10.85,0,0,0,417.81,194Z" transform="translate(-279.5 -1.29)"/><path class="cls-4" d="M336.11,55.34c-1.13.31-2.15-1.54-2.36-2.66s.31-9.43-3.59-14.65S321,31.26,316,34.54s-4.3,8-2.87,11.37,3.79,6.56,4.3,8.09,1.64,2.56.62,3.48-3.28,1.95.31,2.66a55.12,55.12,0,0,0,9.83.61c1.23,0,5.12-1.43,5.43-1.54s2.46-1.64,2.36-1.95A10.58,10.58,0,0,1,336.11,55.34Z" transform="translate(-279.5 -1.29)"/><path class="cls-2" d="M302.07,68a10.38,10.38,0,0,1,3.36,1.46,54.26,54.26,0,0,1,3.66,4.67,31.8,31.8,0,0,0,3.58-14A24.16,24.16,0,0,1,302.07,68Z" transform="translate(-279.5 -1.29)"/><path class="cls-2" d="M359.67,53.2A9.8,9.8,0,0,1,364,55.35a25.86,25.86,0,0,0,2.71-1.71,32.45,32.45,0,0,0,3.37-2.91,18,18,0,0,1-4.44-3.53C366.67,52.2,362.67,52.2,359.67,53.2Z" transform="translate(-279.5 -1.29)"/><path class="cls-4" d="M379.11,37.2c-.39-2.9.19-7.74-2.51-16.05-1.71-5.23-2.5-5.48-2.5-5.48l-5.54,1.64s.14,4.32-.09,8.93a32.36,32.36,0,0,0,1.17,9s-1.93,1.93-3.09,2.9c-.82.68-2.49.73-4.83,1.69-2.14,2.63-3.63,5.81-3,9.34a16.84,16.84,0,0,1-2.06-6.09c-2,1.74-3.78,3.81-4.37,4-.77.19-8.9.19-13.34,4.64-2.58,2.58-3.09,3.67-4.25,4.45s-7,1-8.9,1.16c-.53.05-1.18.09-1.89.12-1.89.08-4.14.12-5.27.26-1.55.19-5-2.32-8.9-2.13a31.06,31.06,0,0,0-6,.77,11.3,11.3,0,0,0-5.22-2.13,31.72,31.72,0,0,0-6.19.39,73,73,0,0,0,1.35-11,52,52,0,0,1,.39-8.32c.39-3.09.39-3.67.39-3.67L288.22,31s-5.61,13.15-6.58,17.6-1.93,8.9-2.13,10.64,2.71,2.51,4.64,2.9,5.22,3.67,10.83,4.45A49.57,49.57,0,0,1,302.07,68a24.16,24.16,0,0,0,10.59-7.84,31.8,31.8,0,0,1-3.58,14c2.76,3.71,6.29,8.49,7.95,10,1.42,1.31,3.73,3.42,5.89,5.82A25.37,25.37,0,0,1,327.67,97a24,24,0,0,1,1.06,3.68c2.85-5.83,4.45-12.45,3.4-19.14a79.63,79.63,0,0,1-7.58,6h0c3.81-6.65,4.55-14.69,5.69-22.5,5.27,5.53,11.46,10.25,18.43,12.4-2.44.31-4.88.85-7.32,1a31.1,31.1,0,0,0,12.84,9.11c0-.09,0-.19,0-.27,0-1.38.44-4.94.87-8.69.15-1.28.3-2.58.43-3.82-.46-.57-.89-1.18-1.33-1.78a17.28,17.28,0,0,1-4.35,1.91c.63-1.54.23-3.08,1.06-4.62a14.63,14.63,0,0,1-2.44-4.09h4.93a15.6,15.6,0,0,0,2.56-2.95c.1-1.91.35-3.46.79-4,.6-.75,4.1-2.08,7.35-3.9a9.8,9.8,0,0,0-4.36-2.15c3-1,7-1,6-6a18,18,0,0,0,4.44,3.53c2.15-2.1,3.9-4.23,4.94-5.4,1.55-1.74,3.29-2.71,4.06-3.67S379.5,40.1,379.11,37.2Z" transform="translate(-279.5 -1.29)"/><path class="cls-5" d="M334.68,110.63c1.86.74,3.74,1.42,5.64,2.07-.64-.8-1.37-1.62-2.06-2.48C337.06,110.34,335.87,110.48,334.68,110.63Z" transform="translate(-279.5 -1.29)"/><path class="cls-5" d="M337.07,115.94c.36,1.46-.55-6.1,1.19-5.72,1.17,6.1,9.91,14.51,21.31-3.32a12.46,12.46,0,0,0,0-4.72c-1.31-5.82-5.17-11.63-5.39-14.62a31.1,31.1,0,0,1-12.84-9.11c2.44-.19,4.88-.73,7.32-1-7-2.15-13.16-6.86-18.43-12.4-1.14,7.81-1.88,15.85-5.68,22.5a79.63,79.63,0,0,0,7.58-6c1,6.69-.55,13.3-3.4,19.14.55,2.52.95,5.39,1.34,8,1.52.73,3.05,1.39,4.61,2,1.19-.16,2.38-.29,3.58-.41C337.26,109,337.43,117.4,337.07,115.94Z" transform="translate(-279.5 -1.29)"/><path class="cls-6" d="M362.09,142.6l-5.8-20.11-.58-5.22a36.64,36.64,0,0,0,3.86-10.36c-7.1,2.29-16.46,7.12-24.26.74.69.86,4.37,4.27,5,5.06,4.18,1.44,8.43,2.79,12.69,4.49-4.26-1.7-8.51-3-12.69-4.49A6.1,6.1,0,0,1,342,116.2c-1,20.54,14.3,38.19,33.68,37.09C369.08,148.07,362.09,142.6,362.09,142.6Z" transform="translate(-279.5 -1.29)"/><path class="cls-7" d="M393.42,173.93c-.58-1.93-5.22-10.44-6.19-11.41-.45-.45-5.86-4.74-11.55-9.23C356.3,154.39,341,136.73,342,116.2a6.1,6.1,0,0,0-1.69-3.49c-2.86-4.79-6.76-7.21-10.78-7.81a99.73,99.73,0,0,0,1.81,9.86c1.35,3.67,3.67,19.34,7.54,24.75s5.8,7.35,6.77,8.12,3.87,4.84,6,5.8,5.61,1.35,6.77,1.74,5.8,4.06,9.67,5.42,11,4.64,13,6.77,3.48,6.19,4.45,8.51,2.9,3.09,5.41,3.67S394,175.86,393.42,173.93Z" transform="translate(-279.5 -1.29)"/><path class="cls-2" d="M361.71,39.85a17,17,0,0,0-3.29,1.79,19.6,19.6,0,0,0-1.81,1.46,16.84,16.84,0,0,0,2.06,6.09C358.08,45.67,359.57,42.49,361.71,39.85Z" transform="translate(-279.5 -1.29)"/><path class="cls-2" d="M355.9,68.14a47.11,47.11,0,0,1,0-4.9,15.6,15.6,0,0,1-2.56,2.95H348.4a14.63,14.63,0,0,0,2.44,4.09c-.83,1.54-.43,3.08-1.06,4.62A17.28,17.28,0,0,0,354.14,73c.44.6.86,1.21,1.33,1.78.11-1,.2-1.95.28-2.82A32.11,32.11,0,0,0,355.9,68.14Z" transform="translate(-279.5 -1.29)"/><path class="cls-8" d="M325.92,37.73c-1-2.46-4.81-1.54-7.48-.41s-4.51,1.43-6.56,2.56a3,3,0,0,0-1.54,3.75c5.22-1.89,10.47-3.73,15.84-5.2C326.1,38.2,326,38,325.92,37.73Z" transform="translate(-279.5 -1.29)"/><path class="cls-9" d="M310.34,43.63a7.76,7.76,0,0,0,.42,1.16c.79,1.76,1.95,2.36,3.48,1.23s1.33-3.07,2-3.79,1.54-.41,2.66-.1a12.5,12.5,0,0,0,5,.92c2-.19,3.21-1.64,2.21-4.63C320.8,39.9,315.55,41.74,310.34,43.63Z" transform="translate(-279.5 -1.29)"/><path class="cls-2" d="M289.39,48.78s-6.56,4.2-4.81,8.91,8.81,3.69,8.81,3.69-3.79-1.54-4.82-5.12S289.39,48.78,289.39,48.78Z" transform="translate(-279.5 -1.29)"/><polygon class="cls-2" points="7.53 32.73 8.76 36.83 12.66 39.6 9.28 40.73 8.35 45.23 6.41 41.65 3.74 43.08 7.53 32.73"/><path class="cls-2" d="M293.8,54.52s4.41-1.23,7.89.72l-3.58.82-.31,5.22a21,21,0,0,0-1.95-4.2C294.93,55.85,293.8,54.52,293.8,54.52Z" transform="translate(-279.5 -1.29)"/><path class="cls-2" d="M374,30.24s4.92,2.56,3.69,7.27-6.45,4.41-6.45,4.41,3.21-2.59,4.1-5.12A6.12,6.12,0,0,0,374,30.24Z" transform="translate(-279.5 -1.29)"/><polygon class="cls-2" points="37.34 61.73 38.47 67.16 34.37 69.61 38.88 70.74 39.91 75.76 42.47 71.36 46.57 72.17 43.8 67.67 44.93 63.37 40.93 65.52 37.34 61.73"/><path class="cls-2" d="M344.71,54.52s-6,1.84-5.74,7,5.94,5.12,5.94,5.12a10.68,10.68,0,0,1-2.36-6.15A10.21,10.21,0,0,1,344.71,54.52Z" transform="translate(-279.5 -1.29)"/><path class="cls-7" d="M392.67,161.63c-1.87-2.62-3.5-6.75-5.75-6.37s-6-2.62-8.87-6.25-6.7-7.37-10.37-7.37c-1.87,0-.62-4.75-.5-6.75a71.43,71.43,0,0,0-.5-16c-1.25-7.37-4.25-15.62-7-20.12l-.62-1c4.26,14.27,9.76,28.15,3,43.47-1,4,6,0,8,4,1,1,0,3-1,4,9-2,15,6,19,10A106.12,106.12,0,0,0,399.32,170c-.16-.89-.35-1.79-.53-2.6C398.17,164.5,394.54,164.25,392.67,161.63Z" transform="translate(-279.5 -1.29)"/><path class="cls-5" d="M388,159.2c-4-4-10-12-19-10,1-1,2-3,1-4-2-4-9,0-8-4,6.81-15.32,1.3-29.19-3-43.47-2.41-4-4-6.8-3.88-4.73.13,2.25-3.75,9.62-5.62,13.87s-3.5,6.25-2.87,9c.8,3.54,3.63,17.87,5.75,23s4,7.75,4.5,9.62,3.75,3.38,5.38,3.87,3.38,2.88,9.25,6.25,10,3.75,12.88,7.12,5.88,7.5,7.75,8.62,5.13,2,6.63.88c1.07-.81.93-3,.53-5.27A106.12,106.12,0,0,1,388,159.2Z" transform="translate(-279.5 -1.29)"/><path class="cls-10" d="M302.81,21.43c-.31-.61-1-.72-2.25-.21A8.07,8.07,0,0,0,298.21,23a3.57,3.57,0,0,1-.8.05,5.12,5.12,0,0,1-.89,1.29,6,6,0,0,1-3.08,1.28c-1.2-.68-3,.45-3,.45s.3-2.86,1.05-3.23a2.78,2.78,0,0,0,1.13-1.2,5.79,5.79,0,0,0,1.88-1.2s1.21-.23,1.87-.43a1.31,1.31,0,0,0,.11-1.4c1.13-.51.41-1.84.41-1.84a10.73,10.73,0,0,0,1.22-.68c1-.61.08-1.65.08-1.65a21.73,21.73,0,0,0-2.93,1,5.29,5.29,0,0,0-1.74.31,30.35,30.35,0,0,0-3.89,3,5.82,5.82,0,0,0-1.54,3.18c-1,.82-.72,3.59-.51,4.81s0,4,.41,5.12a2.41,2.41,0,0,0,2.87,1.84c1.43-.1,3.07-.61,3.28-1.33s1.43-3.69,2.56-4.3a4.65,4.65,0,0,0,2.15-2,11.92,11.92,0,0,1,2.56-2.56C302.51,22.35,303.12,22,302.81,21.43Z" transform="translate(-279.5 -1.29)"/><path class="cls-11" d="M292.6,21.59a2.78,2.78,0,0,1-1.13,1.2c-.75.38-1.05,3.23-1.05,3.23s1.8-1.13,3-.45a6,6,0,0,0,3.08-1.28,5.12,5.12,0,0,0,.89-1.29,1.09,1.09,0,0,1-1-.56,6.83,6.83,0,0,1-.2-2.25,1.79,1.79,0,0,0,.19-.24c-.65.21-1.87.43-1.87.43A5.79,5.79,0,0,1,292.6,21.59Z" transform="translate(-279.5 -1.29)"/><path class="cls-10" d="M374.26,17.12c.13-1.16-.69-3.75-.73-5a15.8,15.8,0,0,0-.77-4.42s-.45-2.27-1.52-3.14a21,21,0,0,0-3-2.27c-.58-.22-2.79-.86-2.79-.86s-1.23-.28-1.36-.08c0,0-.54,1.14.31,1.62s.67.42.67.42-.32,1.4.59,1.77a1.68,1.68,0,0,0,.3,1.37,1.77,1.77,0,0,0,.18.21,9,9,0,0,1,.2,2.25.8.8,0,0,1-.69.68,2.07,2.07,0,0,1-.6,0,6.65,6.65,0,0,0-2-1.44c-1-.36-1.51-.18-1.64.47s.37.87,1.37,1.75A11,11,0,0,1,365,12.75,4.22,4.22,0,0,0,367,14.52c.94.48,1.88,3.4,2.15,4.08s1.92.73,3,.66A2.15,2.15,0,0,0,374.26,17.12Z" transform="translate(-279.5 -1.29)"/><polygon class="cls-10" points="41.52 54.8 41.52 54.8 41.52 54.8 41.52 54.8"/><path class="cls-10" d="M326.58,45.09c-1.23-2.87-5.12-1.43-5.84-1.43s-2.25-.82-3.07-.51a.62.62,0,0,0-.4.42c0,1.19.1,3.24.37,3.51s.53-.45,1.05-.53a5.46,5.46,0,0,1,1.88.6s-1.35.53-1.65,1.13a2.16,2.16,0,0,0,.08,1.5s2-1.05,2.93-.23c0,0-2.48.83-2.48,1.2a3.78,3.78,0,0,0,.38,1.13s1.65-.15,1.8.23-1,.9-.83,1.88a6.4,6.4,0,0,0,.81,1.87c1.66-.46,2.51-1.63,3.46-3.33.2-.63.35-1.31.5-2C326.07,48.06,327.14,46.4,326.58,45.09Z" transform="translate(-279.5 -1.29)"/><path class="cls-12" d="M321.62,52.11c-.15-.38-1.8-.23-1.8-.23a3.78,3.78,0,0,1-.38-1.13c0-.38,2.48-1.2,2.48-1.2-1-.83-2.93.23-2.93.23a2.16,2.16,0,0,1-.08-1.5c.3-.6,1.65-1.13,1.65-1.13a5.46,5.46,0,0,0-1.88-.6c-.53.08-.68.9-1.05.53s-.34-2.32-.37-3.51c-.14.45.11,1.07-.11,1.22s-3.07.72-2.87,2.15a12.12,12.12,0,0,0,2.77,4.92c.86,1,1.43,2.59,2.36,3.52a1.41,1.41,0,0,0,1.17.68,3.7,3.7,0,0,0,1.07-.2,4.89,4.89,0,0,1-.86-1.86C320.64,53,321.77,52.49,321.62,52.11Z" transform="translate(-279.5 -1.29)"/><path class="cls-7" d="M349.61,97.37c-1.21,3.34-3.71,13.84-2.15,12,1.35-1.61,1.48-7,7.27-10.36,2.56-1.48.54-9.82-.54-7.81S350.14,95.89,349.61,97.37Z" transform="translate(-279.5 -1.29)"/></svg>